<svg width="1920" height="2322" viewBox="0 0 1920 2322" fill="none" xmlns="http://www.w3.org/2000/svg">
<g clip-path="url(#clip0_736_31684)">
<path d="M137.143 1926V2271.92C137.143 2276.96 141.236 2281.06 146.285 2281.06H889.143C894.192 2281.06 898.285 2285.15 898.285 2290.21" stroke="url(#paint0_linear_736_31684)" stroke-opacity="0.05" stroke-width="80"/>
<path d="M948.571 964.572V1693.09" stroke="url(#paint1_linear_736_31684)" stroke-opacity="0.05" stroke-width="80"/>
<path d="M0 1886H1781.71C1786.77 1886 1790.86 1881.91 1790.86 1876.86V990" stroke="url(#paint2_linear_736_31684)" stroke-opacity="0.05" stroke-width="80"/>
<path d="M1920 950H1141.71C1136.67 950 1132.57 954.094 1132.57 959.143V1496.29" stroke="url(#paint3_linear_736_31684)" stroke-opacity="0.05" stroke-width="80"/>
<path d="M80 971.429H790.857C795.906 971.429 800 967.335 800 962.286V0" stroke="url(#paint4_linear_736_31684)" stroke-opacity="0.05" stroke-width="80"/>
<path d="M11.4287 973.143L92.0001 867.429L92.0002 1078.86L11.4287 973.143Z" fill="url(#paint5_linear_736_31684)"/>
<path d="M1827.43 328H1507.43C1502.38 328 1498.29 332.094 1498.29 337.143V797.714" stroke="url(#paint6_linear_736_31684)" stroke-opacity="0.05" stroke-width="80"/>
<path d="M0 172.571H218.286C223.335 172.571 227.429 168.478 227.429 163.429V0" stroke="url(#paint7_linear_736_31684)" stroke-opacity="0.05" stroke-width="80"/>
<path d="M1908 325.143L1827.43 430.857V219.429L1908 325.143Z" fill="#FAFAFA"/>
</g>
<defs>
<linearGradient id="paint0_linear_736_31684" x1="915.428" y1="3065.43" x2="75.8109" y2="1996.15" gradientUnits="userSpaceOnUse">
<stop stop-color="#0E0E0E" stop-opacity="0.6"/>
<stop offset="1" stop-color="#0E0E0E" stop-opacity="0.4"/>
</linearGradient>
<linearGradient id="paint1_linear_736_31684" x1="-nan" y1="-nan" x2="-nan" y2="-nan" gradientUnits="userSpaceOnUse">
<stop stop-color="#0E0E0E" stop-opacity="0"/>
<stop offset="1" stop-color="#0E0E0E" stop-opacity="0.8"/>
</linearGradient>
<linearGradient id="paint2_linear_736_31684" x1="200.571" y1="1927.33" x2="800.805" y2="556.494" gradientUnits="userSpaceOnUse">
<stop stop-color="#0E0E0E" stop-opacity="0.4"/>
<stop offset="0.145833" stop-color="white"/>
<stop offset="0.288899"/>
<stop offset="0.810618" stop-color="#3E3E3E" stop-opacity="0"/>
<stop offset="0.994792" stop-color="#0E0E0E"/>
</linearGradient>
<linearGradient id="paint3_linear_736_31684" x1="1702.81" y1="950" x2="1360.08" y2="1613.76" gradientUnits="userSpaceOnUse">
<stop stop-color="#0E0E0E"/>
<stop offset="0.561559" stop-color="#0E0E0E" stop-opacity="0.8"/>
<stop offset="1" stop-color="#0E0E0E" stop-opacity="0"/>
</linearGradient>
<linearGradient id="paint4_linear_736_31684" x1="262.571" y1="1007.64" x2="1027.63" y2="221.529" gradientUnits="userSpaceOnUse">
<stop stop-color="#0E0E0E"/>
<stop offset="0.1179" stop-color="white"/>
<stop offset="0.463542" stop-color="#9D9D9D" stop-opacity="0.8"/>
<stop offset="0.785376" stop-color="#3E3E3E" stop-opacity="0"/>
<stop offset="0.891621" stop-color="#0E0E0E"/>
<stop offset="0.994792" stop-color="#0E0E0E" stop-opacity="0"/>
</linearGradient>
<linearGradient id="paint5_linear_736_31684" x1="9.14301" y1="960" x2="92.0002" y2="973.143" gradientUnits="userSpaceOnUse">
<stop stop-color="#F6F6F6" stop-opacity="0"/>
<stop offset="1" stop-color="#F3F3F3"/>
</linearGradient>
<linearGradient id="paint6_linear_736_31684" x1="1827.43" y1="316" x2="1380.46" y2="629.962" gradientUnits="userSpaceOnUse">
<stop stop-color="#0E0E0E" stop-opacity="0.4"/>
<stop offset="0.145833" stop-color="white" stop-opacity="0.4"/>
<stop offset="0.441884" stop-opacity="0.6"/>
<stop offset="0.810618" stop-color="#3E3E3E" stop-opacity="0"/>
<stop offset="0.994792" stop-color="#0E0E0E"/>
</linearGradient>
<linearGradient id="paint7_linear_736_31684" x1="25.4714" y1="180.53" x2="170.473" y2="-37.8226" gradientUnits="userSpaceOnUse">
<stop stop-color="#0E0E0E" stop-opacity="0.4"/>
<stop offset="0.333333" stop-color="white" stop-opacity="0.4"/>
<stop offset="0.666667" stop-color="#3E3E3E" stop-opacity="0.4"/>
<stop offset="1" stop-color="#0E0E0E" stop-opacity="0.6"/>
</linearGradient>
<clipPath id="clip0_736_31684">
<rect width="1920" height="2322" fill="white"/>
</clipPath>
</defs>
</svg>
