<svg width="1680" height="2763" viewBox="0 0 1680 2763" fill="none" xmlns="http://www.w3.org/2000/svg">
<path d="M120 1695V1997.68C120 2002.09 123.582 2005.68 128 2005.68H778C782.418 2005.68 786 2009.26 786 2013.68V2692" stroke="url(#paint0_linear_421_23923)" stroke-opacity="0.05" stroke-width="80"/>
<path d="M784.5 2762.5L692 2692L877 2692L784.5 2762.5Z" fill="#F8F8F8"/>
<path d="M0 1655H1559C1563.42 1655 1567 1651.42 1567 1647V871" stroke="url(#paint1_linear_421_23923)" stroke-opacity="0.05" stroke-width="80"/>
<path d="M1680 831L999 831C994.582 831 991 834.582 991 839L991 1309" stroke="url(#paint2_linear_421_23923)" stroke-opacity="0.05" stroke-width="80"/>
<path d="M70 850H692C696.418 850 700 846.418 700 842V-1.52588e-05" stroke="url(#paint3_linear_421_23923)" stroke-opacity="0.05" stroke-width="80"/>
<path d="M9.99975 851.5L80.4997 759L80.4998 944L9.99975 851.5Z" fill="url(#paint4_linear_421_23923)"/>
<defs>
<linearGradient id="paint0_linear_421_23923" x1="801" y1="2692" x2="66.3348" y2="1756.38" gradientUnits="userSpaceOnUse">
<stop stop-color="#0E0E0E" stop-opacity="0.6"/>
<stop offset="1" stop-color="#0E0E0E" stop-opacity="0.4"/>
</linearGradient>
<linearGradient id="paint1_linear_421_23923" x1="175.5" y1="1691.16" x2="700.704" y2="491.682" gradientUnits="userSpaceOnUse">
<stop stop-color="#0E0E0E" stop-opacity="0.4"/>
<stop offset="0.145833" stop-color="white"/>
<stop offset="0.288899"/>
<stop offset="0.810618" stop-color="#3E3E3E" stop-opacity="0"/>
<stop offset="0.994792" stop-color="#0E0E0E"/>
</linearGradient>
<linearGradient id="paint2_linear_421_23923" x1="1489.96" y1="831" x2="1190.07" y2="1411.79" gradientUnits="userSpaceOnUse">
<stop stop-color="#0E0E0E"/>
<stop offset="0.561559" stop-color="#0E0E0E" stop-opacity="0.8"/>
<stop offset="1" stop-color="#0E0E0E" stop-opacity="0"/>
</linearGradient>
<linearGradient id="paint3_linear_421_23923" x1="229.75" y1="881.689" x2="899.174" y2="193.838" gradientUnits="userSpaceOnUse">
<stop stop-color="#0E0E0E"/>
<stop offset="0.1179" stop-color="white"/>
<stop offset="0.463542" stop-color="#9D9D9D" stop-opacity="0.8"/>
<stop offset="0.785376" stop-color="#3E3E3E" stop-opacity="0"/>
<stop offset="0.891621" stop-color="#0E0E0E"/>
<stop offset="0.994792" stop-color="#0E0E0E" stop-opacity="0"/>
</linearGradient>
<linearGradient id="paint4_linear_421_23923" x1="7.99975" y1="840" x2="80.4998" y2="851.5" gradientUnits="userSpaceOnUse">
<stop stop-color="#F6F6F6" stop-opacity="0"/>
<stop offset="1" stop-color="#F3F3F3"/>
</linearGradient>
</defs>
</svg>
