<svg width="1680" height="2763" viewBox="0 0 1680 2763" fill="none" xmlns="http://www.w3.org/2000/svg">
<path d="M830 844V1481.45" stroke="url(#paint0_linear_609_31418)" stroke-opacity="0.05" stroke-width="80"/>
<path d="M120 1695V1997.68C120 2002.09 123.582 2005.68 128 2005.68H778C782.418 2005.68 786 2009.26 786 2013.68V2692" stroke="url(#paint1_linear_609_31418)" stroke-opacity="0.05" stroke-width="80"/>
<path d="M784.5 2762.5L692 2692L877 2692L784.5 2762.5Z" fill="#F8F8F8"/>
<path d="M0 1655H1559C1563.42 1655 1567 1651.42 1567 1647V871" stroke="url(#paint2_linear_609_31418)" stroke-opacity="0.05" stroke-width="80"/>
<path d="M1680 831L999 831C994.582 831 991 834.582 991 839L991 1309" stroke="url(#paint3_linear_609_31418)" stroke-opacity="0.05" stroke-width="80"/>
<path d="M70 850H692C696.418 850 700 846.418 700 842V-1.52588e-05" stroke="url(#paint4_linear_609_31418)" stroke-opacity="0.05" stroke-width="80"/>
<path d="M10 851.5L80.5 759L80.5 944L10 851.5Z" fill="url(#paint5_linear_609_31418)"/>
<path d="M1599 287L1319 287C1314.58 287 1311 290.582 1311 295L1311 698" stroke="url(#paint6_linear_609_31418)" stroke-opacity="0.05" stroke-width="80"/>
<path d="M1669.5 284.5L1599 377L1599 192L1669.5 284.5Z" fill="#FAFAFA"/>
<path d="M0 151L191 151C195.418 151 199 147.418 199 143L199 1.90735e-06" stroke="url(#paint7_linear_609_31418)" stroke-opacity="0.05" stroke-width="80"/>
<defs>
<linearGradient id="paint0_linear_609_31418" x1="830" y1="1524.5" x2="824.197" y2="1091.58" gradientUnits="userSpaceOnUse">
<stop stop-color="#0E0E0E" stop-opacity="0"/>
<stop offset="1" stop-color="#0E0E0E" stop-opacity="0.8"/>
</linearGradient>
<linearGradient id="paint1_linear_609_31418" x1="801" y1="2692" x2="66.3348" y2="1756.38" gradientUnits="userSpaceOnUse">
<stop stop-color="#0E0E0E" stop-opacity="0.6"/>
<stop offset="1" stop-color="#0E0E0E" stop-opacity="0.4"/>
</linearGradient>
<linearGradient id="paint2_linear_609_31418" x1="175.5" y1="1691.16" x2="700.704" y2="491.682" gradientUnits="userSpaceOnUse">
<stop stop-color="#0E0E0E" stop-opacity="0.4"/>
<stop offset="0.145833" stop-color="white"/>
<stop offset="0.288899"/>
<stop offset="0.810618" stop-color="#3E3E3E" stop-opacity="0"/>
<stop offset="0.994792" stop-color="#0E0E0E"/>
</linearGradient>
<linearGradient id="paint3_linear_609_31418" x1="1489.96" y1="831" x2="1190.07" y2="1411.79" gradientUnits="userSpaceOnUse">
<stop stop-color="#0E0E0E"/>
<stop offset="0.561559" stop-color="#0E0E0E" stop-opacity="0.8"/>
<stop offset="1" stop-color="#0E0E0E" stop-opacity="0"/>
</linearGradient>
<linearGradient id="paint4_linear_609_31418" x1="229.75" y1="881.689" x2="899.174" y2="193.838" gradientUnits="userSpaceOnUse">
<stop stop-color="#0E0E0E"/>
<stop offset="0.1179" stop-color="white"/>
<stop offset="0.463542" stop-color="#9D9D9D" stop-opacity="0.8"/>
<stop offset="0.785376" stop-color="#3E3E3E" stop-opacity="0"/>
<stop offset="0.891621" stop-color="#0E0E0E"/>
<stop offset="0.994792" stop-color="#0E0E0E" stop-opacity="0"/>
</linearGradient>
<linearGradient id="paint5_linear_609_31418" x1="8" y1="840" x2="80.5" y2="851.5" gradientUnits="userSpaceOnUse">
<stop stop-color="#F6F6F6" stop-opacity="0"/>
<stop offset="1" stop-color="#F3F3F3"/>
</linearGradient>
<linearGradient id="paint6_linear_609_31418" x1="1599" y1="276.5" x2="1207.9" y2="551.217" gradientUnits="userSpaceOnUse">
<stop stop-color="#0E0E0E" stop-opacity="0.4"/>
<stop offset="0.145833" stop-color="white" stop-opacity="0.4"/>
<stop offset="0.441884" stop-opacity="0.6"/>
<stop offset="0.810618" stop-color="#3E3E3E" stop-opacity="0"/>
<stop offset="0.994792" stop-color="#0E0E0E"/>
</linearGradient>
<linearGradient id="paint7_linear_609_31418" x1="22.2875" y1="157.964" x2="149.164" y2="-33.0948" gradientUnits="userSpaceOnUse">
<stop stop-color="#0E0E0E" stop-opacity="0.4"/>
<stop offset="0.333333" stop-color="white" stop-opacity="0.4"/>
<stop offset="0.666667" stop-color="#3E3E3E" stop-opacity="0.4"/>
<stop offset="1" stop-color="#0E0E0E" stop-opacity="0.6"/>
</linearGradient>
</defs>
</svg>
