<svg width="61" height="62" viewBox="0 0 61 62" fill="none" xmlns="http://www.w3.org/2000/svg">
<path fill-rule="evenodd" clip-rule="evenodd" d="M54.0521 12.1147C52.3811 10.2755 50.4655 8.63083 48.3491 7.21816C47.4521 8.10077 46.3958 8.83842 45.2257 9.39947C46.8463 10.9961 48.2033 12.7299 48.8202 14.4841C48.8428 14.5479 48.8513 14.6151 48.8453 14.6818C48.8392 14.7486 48.8186 14.8136 48.7848 14.8732C48.7509 14.9327 48.7044 14.9856 48.6479 15.0288C48.5914 15.0719 48.5261 15.1046 48.4557 15.1248C48.3999 15.1325 48.3432 15.1325 48.2874 15.1248C48.1644 15.1303 48.0429 15.0989 47.9416 15.0354C47.8402 14.972 47.7647 14.8802 47.7267 14.774C47.1435 13.1011 45.7752 11.4028 44.1546 9.87743C42.3342 10.6212 40.4345 11.1937 38.4853 11.5859C38.9886 12.6087 39.383 13.6729 39.6629 14.7638C39.6946 14.8953 39.6676 15.0328 39.5877 15.1462C39.5078 15.2596 39.3816 15.3397 39.2367 15.3689H39.1133C38.9829 15.3715 38.8556 15.3328 38.7532 15.2595C38.6509 15.1862 38.5799 15.0828 38.5526 14.9672C38.2714 13.8756 37.8694 12.8126 37.3525 11.7943C34.4457 12.3071 31.4929 12.5761 28.5317 12.5977V16.3705C28.5317 16.5054 28.4726 16.6347 28.3675 16.7301C28.2623 16.8254 28.1197 16.879 27.9709 16.879C27.8222 16.879 27.6796 16.8254 27.5744 16.7301C27.4692 16.6347 27.4102 16.5054 27.4102 16.3705V12.5723C24.7903 12.5527 22.1763 12.3435 19.5931 11.9469C19.1145 12.9139 18.7389 13.9201 18.4716 14.9519C18.4442 15.0676 18.3733 15.1709 18.2709 15.2443C18.1686 15.3176 18.0412 15.3562 17.9108 15.3536H17.7874C17.6495 15.3244 17.5289 15.2489 17.4498 15.1423C17.3708 15.0357 17.3391 14.9059 17.3613 14.779C17.6192 13.7559 17.9815 12.7567 18.4435 11.7943C16.4259 11.4367 14.4519 10.9002 12.5499 10.1927C11.1224 11.4943 10.0124 13.0534 9.29187 14.7689C9.25521 14.8708 9.18395 14.9596 9.08827 15.0227C8.99259 15.0857 8.87739 15.1196 8.75914 15.1197C8.70338 15.1274 8.64667 15.1274 8.59091 15.1197C8.52048 15.0995 8.45515 15.0669 8.39867 15.0237C8.34219 14.9805 8.29568 14.9276 8.26181 14.8681C8.22794 14.8085 8.20737 14.7435 8.2013 14.6768C8.19523 14.61 8.20376 14.5428 8.22642 14.479C8.93617 12.7203 10.0397 11.1137 11.4676 9.76048C10.6239 9.3857 9.81879 8.94327 9.06195 8.43847C7.53771 9.60552 6.13718 10.8993 4.87865 12.3028C4.82587 12.3618 4.75919 12.4093 4.6835 12.4419C4.60781 12.4744 4.52503 12.4912 4.44126 12.4909C4.33562 12.4903 4.23232 12.4626 4.14327 12.4111C4.05422 12.3596 3.98303 12.2863 3.93791 12.1997C3.89278 12.1131 3.87556 12.0167 3.88822 11.9216C3.90088 11.8265 3.94291 11.7365 4.00947 11.6621C8.09506 7.07148 13.5935 3.68576 19.8062 1.93519H19.8903C25.4265 0.396057 31.3126 0.20839 36.9544 1.39114H37.0105C44.0382 2.87164 50.3315 6.41199 54.9157 11.4638C55.0108 11.5677 55.0566 11.7016 55.043 11.836C55.0293 11.9705 54.9573 12.0945 54.8428 12.1808C54.7283 12.2671 54.5806 12.3086 54.4323 12.2962C54.284 12.2838 54.1473 12.2185 54.0521 12.1147ZM9.94796 7.7673C10.6821 8.22593 11.4589 8.62574 12.2695 8.96219C14.7103 6.76606 17.4044 4.8142 20.3053 3.14026L19.9632 2.97755C16.3334 4.01299 12.9402 5.63574 9.94796 7.7673ZM13.3798 9.39947C15.1727 10.028 17.0254 10.5063 18.9146 10.8283C20.1836 8.49401 21.7051 6.27979 23.4568 4.21821C22.8012 4.06941 22.1569 3.88259 21.5277 3.65889C18.6012 5.3131 15.8707 7.23682 13.3798 9.39947ZM20.0698 11.0164C22.492 11.3695 24.9401 11.5565 27.3933 11.5757V4.69108C26.481 4.66839 25.5719 4.58341 24.6736 4.43685C22.9112 6.49191 21.3695 8.69513 20.0698 11.0164ZM21.5894 2.55552C23.607 3.31269 25.7706 3.69814 27.9541 3.6894C30.5183 3.71924 33.0523 3.18538 35.3394 2.1335C30.7772 1.36044 26.0835 1.50451 21.5894 2.55552ZM28.5149 4.67583V11.5808C31.3121 11.5674 34.1026 11.3291 36.8534 10.8689C35.5366 8.5334 33.9721 6.31961 32.1823 4.25888C30.9786 4.51051 29.7498 4.65021 28.5149 4.67583ZM33.3487 3.96397C35.1322 6.04168 36.6873 8.2726 37.9918 10.6249C39.8096 10.2729 41.586 9.7638 43.2966 9.10456C40.8243 6.99978 38.1246 5.12596 35.2384 3.51144C35.1741 3.47667 35.1187 3.42987 35.0758 3.37415C34.5142 3.60315 33.9374 3.80014 33.3487 3.96397ZM36.2086 2.85552C39.1498 4.51555 41.8902 6.4516 44.3845 8.63169C45.5196 8.1286 46.5499 7.45077 47.4295 6.62833C44.2517 4.66053 40.7033 3.23707 36.96 2.42841C36.7132 2.57586 36.4665 2.72332 36.2086 2.85552ZM39.046 60.3071C35.9136 61.1795 32.6553 61.6233 29.3785 61.624C24.528 61.6295 19.7366 60.659 15.3497 58.7827C10.9628 56.9063 7.08964 54.1708 4.00947 50.7733C3.91428 50.6688 3.86879 50.5343 3.88298 50.3994C3.89718 50.2645 3.96991 50.1402 4.08517 50.0539C4.20043 49.9676 4.34878 49.9263 4.49759 49.9392C4.6464 49.952 4.78347 50.018 4.87865 50.1225C6.55209 51.9617 8.47159 53.6048 10.5928 55.0139C11.5001 54.1376 12.566 53.4085 13.7443 52.8581C12.1293 51.2615 10.7667 49.5276 10.1498 47.7734C10.1274 47.7096 10.119 47.6425 10.1252 47.5758C10.1313 47.5091 10.1519 47.4441 10.1858 47.3846C10.2196 47.3251 10.266 47.2723 10.3224 47.229C10.3788 47.1858 10.444 47.1531 10.5143 47.1327C10.5847 47.1124 10.6587 47.1048 10.7323 47.1103C10.8059 47.1159 10.8775 47.1346 10.9431 47.1653C11.0087 47.196 11.067 47.2381 11.1147 47.2892C11.1623 47.3403 11.1984 47.3995 11.2209 47.4632C11.8097 49.1361 13.1724 50.8344 14.7986 52.3598C16.6168 51.6156 18.5147 51.0431 20.4623 50.6513C19.9564 49.6293 19.562 48.565 19.2847 47.4734C19.2535 47.3385 19.2826 47.198 19.3657 47.0826C19.4487 46.9672 19.579 46.8865 19.7277 46.8582C19.8764 46.8298 20.0315 46.8562 20.1587 46.9316C20.286 47.0069 20.375 47.125 20.4062 47.2598C20.6817 48.3525 21.0781 49.4172 21.5894 50.4378C24.4926 49.9256 27.4415 49.6567 30.399 49.6344V45.8616C30.399 45.7267 30.4581 45.5974 30.5633 45.502C30.6685 45.4067 30.8111 45.3531 30.9598 45.3531C31.1085 45.3531 31.2512 45.4067 31.3563 45.502C31.4615 45.5974 31.5206 45.7267 31.5206 45.8616V49.6191C34.1405 49.6388 36.7544 49.8479 39.3376 50.2445C39.8188 49.2785 40.1944 48.272 40.4592 47.2395C40.4904 47.1046 40.5794 46.9866 40.7067 46.9112C40.8339 46.8359 40.989 46.8095 41.1377 46.8378C41.2864 46.8661 41.4166 46.9469 41.4997 47.0622C41.5828 47.1776 41.6119 47.3182 41.5807 47.4531C41.3208 48.4764 40.9566 49.4756 40.4928 50.4378C42.5115 50.7888 44.4873 51.3185 46.392 52.0191C47.8199 50.7187 48.9283 49.1592 49.6445 47.4429C49.6668 47.379 49.7028 47.3198 49.7504 47.2686C49.798 47.2174 49.8563 47.1752 49.922 47.1445C49.9877 47.1138 50.0594 47.0951 50.133 47.0896C50.2066 47.0841 50.2807 47.0918 50.351 47.1124C50.4215 47.1326 50.4868 47.1652 50.5433 47.2084C50.5998 47.2516 50.6463 47.3045 50.6801 47.364C50.714 47.4236 50.7346 47.4886 50.7407 47.5553C50.7467 47.6221 50.7382 47.6893 50.7155 47.7531C50.0015 49.5111 48.8963 51.1173 47.4687 52.4716C48.3112 52.8455 49.1145 53.288 49.8688 53.7936C51.3944 52.6279 52.7951 51.3341 54.0521 49.9293C54.1502 49.8241 54.2905 49.7586 54.4419 49.7471C54.5933 49.7357 54.7436 49.7793 54.8596 49.8683C54.9756 49.9573 55.0479 50.0844 55.0605 50.2217C55.0731 50.359 55.025 50.4953 54.9269 50.6005C50.8356 55.1857 45.3332 58.5644 39.1189 60.3071H39.046ZM49.0052 54.4648C48.2662 54.0075 47.4836 53.6111 46.6668 53.2801L46.6724 53.2699C44.2352 55.4655 41.5449 57.4173 38.6479 59.0918C38.7656 59.1427 38.8777 59.1986 38.9899 59.2545L38.99 59.2546C42.6198 58.2191 46.0129 56.5964 49.0052 54.4648ZM45.5677 52.8326C43.7753 52.2027 41.9225 51.7244 40.033 51.4038C38.7604 53.7401 37.2351 55.956 35.4796 58.019C36.1327 58.1677 36.775 58.3528 37.403 58.5732C40.3384 56.9237 43.0749 54.9997 45.5677 52.8326ZM38.8834 51.2157C36.4593 50.8623 34.0093 50.6753 31.5542 50.6564V57.541C32.4665 57.5637 33.3757 57.6487 34.2739 57.7953C36.0388 55.7407 37.5824 53.5374 38.8834 51.2157ZM37.3581 59.6766C35.3407 58.9189 33.177 58.5334 30.9935 58.5427H30.9822C28.4198 58.5129 25.8876 59.0468 23.6026 60.0986C28.1665 60.8731 32.8624 60.729 37.3581 59.6766ZM30.4327 57.5563V50.6513H30.4215C27.6253 50.6739 24.8368 50.9207 22.0885 51.3886C23.4109 53.7199 24.981 55.9286 26.7765 57.9834C27.976 57.7284 29.2011 57.5852 30.4327 57.5563ZM25.6045 58.2681C23.8233 56.19 22.2701 53.9591 20.967 51.6072C19.1474 51.9592 17.3691 52.4683 15.6565 53.1275C18.1303 55.2329 20.8319 57.1068 23.7203 58.7207C23.7823 58.7582 23.8372 58.8046 23.883 58.8579C24.4423 58.6281 25.0173 58.4311 25.6045 58.2681ZM22.7446 59.3766C19.8065 57.7148 17.0681 55.7789 14.5743 53.6004H14.5574C13.4267 54.105 12.4004 54.7828 11.5237 55.6038C14.7026 57.5698 18.2506 58.9931 21.9932 59.8037C22.2399 59.6562 22.4867 59.5088 22.7446 59.3766ZM0.164244 37.5089C0.269408 37.4136 0.412041 37.36 0.560764 37.36H2.52344V24.8467H0.560764C0.412041 24.8467 0.269408 24.7931 0.164244 24.6977C0.0590805 24.6024 0 24.4731 0 24.3382V20.8501C0 20.7153 0.0590805 20.5859 0.164244 20.4906C0.269408 20.3952 0.412041 20.3417 0.560764 20.3417H11.1816C11.3304 20.3417 11.473 20.3952 11.5782 20.4906C11.6833 20.5859 11.7424 20.7153 11.7424 20.8501V24.3382C11.7424 24.4731 11.6833 24.6024 11.5782 24.6977C11.473 24.7931 11.3304 24.8467 11.1816 24.8467H9.21897V37.36H11.1816C11.3304 37.36 11.473 37.4136 11.5782 37.5089C11.6833 37.6043 11.7424 37.7336 11.7424 37.8685V41.3566C11.7424 41.4914 11.6833 41.6207 11.5782 41.7161C11.473 41.8115 11.3304 41.865 11.1816 41.865H0.560764C0.412041 41.865 0.269408 41.8115 0.164244 41.7161C0.0590805 41.6207 0 41.4914 0 41.3566V37.8685C0 37.7336 0.0590805 37.6043 0.164244 37.5089ZM1.12153 23.8297H3.0842C3.23293 23.8297 3.37556 23.8833 3.48073 23.9787C3.58589 24.074 3.64497 24.2033 3.64497 24.3382V37.8685C3.64497 38.0033 3.58589 38.1327 3.48073 38.228C3.37556 38.3234 3.23293 38.3769 3.0842 38.3769H1.12153V40.8481H10.6209V38.3769H8.6582C8.50948 38.3769 8.36685 38.3234 8.26168 38.228C8.15652 38.1327 8.09744 38.0033 8.09744 37.8685V24.3382C8.09744 24.2033 8.15652 24.074 8.26168 23.9787C8.36685 23.8833 8.50948 23.8297 8.6582 23.8297H10.6209V21.3586H1.12153V23.8297ZM48.3211 20.3518C55.3138 20.3518 61 25.1823 61 31.1161C61 37.0346 55.3138 41.865 48.3211 41.865C41.3283 41.865 35.6422 37.06 35.6422 31.1161C35.6422 25.1721 41.3283 20.3518 48.3211 20.3518ZM36.7637 31.1059C36.7637 36.4753 41.9508 40.8481 48.3211 40.8481C54.6914 40.8481 59.8784 36.4804 59.8784 31.1059C59.8784 25.7314 54.6914 21.3586 48.3211 21.3586C41.9508 21.3586 36.7637 25.7365 36.7637 31.1059ZM41.7148 31.1162C41.7148 26.718 44.7261 23.0112 48.3206 23.0112C51.9151 23.0112 54.9489 26.7434 54.9489 31.1162C54.9489 35.489 51.9376 39.2059 48.3431 39.2059C44.7486 39.2059 41.7148 35.5144 41.7148 31.1162ZM42.8364 31.1162C42.8364 34.9398 45.3374 38.1788 48.3206 38.1788C51.3095 38.1788 53.8273 34.9653 53.8273 31.1162C53.8273 27.2671 51.3263 24.0383 48.3431 24.0383C45.3598 24.0383 42.8364 27.2925 42.8364 31.1162ZM19.6712 35.0009C19.6712 35.6059 21.432 36.9839 24.3311 36.9839C27.8695 36.9839 28.335 35.8398 28.3855 34.9754C28.4094 34.7663 28.3854 34.5548 28.315 34.3545C28.2446 34.1541 28.1292 33.9691 27.9761 33.8111C27.4209 33.2823 26.1929 33.0128 24.3311 33.0128C21.5273 33.0128 18.4263 32.2246 16.6767 31.0501C14.5346 29.6111 14.2822 27.562 14.2822 26.1485C14.2822 22.3655 18.7908 19.2842 24.3255 19.2842C29.7032 19.2842 33.7576 22.2333 33.7576 26.1485C33.7576 26.2833 33.6985 26.4127 33.5933 26.508C33.4882 26.6034 33.3455 26.6569 33.1968 26.6569H28.9406C28.7919 26.6569 28.6493 26.6034 28.5441 26.508C28.4389 26.4127 28.3798 26.2833 28.3798 26.1485C28.3798 25.3909 27.1966 23.9011 24.4545 23.9011C22.6769 23.9011 21.1516 24.3383 20.3777 25.0705C20.0668 25.3499 19.8881 25.7281 19.8798 26.125C19.8714 26.5218 20.0339 26.906 20.3329 27.1959C21.0058 27.8112 22.3853 28.1366 24.3311 28.1366C30.3313 28.1366 34.3744 30.8975 34.3744 35.0009C34.3744 39.1042 30.3369 41.8652 24.3311 41.8652C18.7739 41.8652 14.2878 38.7839 14.2878 35.0009C14.2881 34.9336 14.3032 34.867 14.332 34.8051C14.3609 34.7431 14.4031 34.6869 14.4561 34.6399C14.5605 34.5459 14.7015 34.493 14.8486 34.4924H19.1104C19.2591 34.4924 19.4018 34.546 19.5069 34.6413C19.6121 34.7367 19.6712 34.866 19.6712 35.0009ZM24.3311 31.9958C26.5461 31.9958 27.9873 32.3467 28.7892 33.1094H28.7836C29.0448 33.3674 29.2436 33.6722 29.3672 34.0041C29.4908 34.336 29.5365 34.6876 29.5014 35.0365C29.406 36.9991 27.6621 38.0161 24.3255 38.0161C21.4095 38.0161 19.1384 36.7856 18.645 35.5246H15.4374C15.8355 38.5093 19.6656 40.8635 24.3255 40.8635C28.7612 40.8635 33.2473 39.0533 33.2473 35.0161C33.2473 30.6942 28.4415 29.1688 24.3255 29.1688C22.0432 29.1688 20.4282 28.7518 19.531 27.9281C19.275 27.6969 19.0738 27.4206 18.9398 27.1164C18.8057 26.8121 18.7417 26.4862 18.7515 26.1586C18.7461 25.8274 18.8155 25.4987 18.9553 25.1927C19.0952 24.8866 19.3025 24.6097 19.5646 24.379C20.5572 23.4384 22.3404 22.8994 24.4489 22.8994C27.348 22.8994 29.0584 24.3688 29.4229 25.6553H32.6136C32.2715 22.579 28.8172 20.3164 24.3311 20.3164C19.4132 20.3164 15.4094 22.9401 15.4094 26.1637C15.4094 28.0756 16.0094 29.3315 17.3496 30.2315C18.9254 31.2891 21.7292 31.9958 24.3311 31.9958Z" fill="white"/>
</svg>
