<svg width="70" height="70" viewBox="0 0 70 70" fill="none" xmlns="http://www.w3.org/2000/svg">
<circle cx="35" cy="35" r="33" fill="#FFE131" stroke="white" stroke-width="3"/>
<path fill-rule="evenodd" clip-rule="evenodd" d="M23.8099 24.313C23.7382 24.6899 21 45.7061 21 45.879C21 45.9622 22.0827 46 24.4727 46H27.9454L28.0114 45.6457C28.0478 45.4507 28.0775 43.2588 28.0775 40.7747V36.258L27.2772 36.2249L26.477 36.1918L28.0709 34.8547C29.1414 33.9566 29.7109 33.5471 29.8052 33.6074C29.8823 33.6568 30.6116 34.2585 31.4258 34.9445L32.9061 36.1918L32.1291 36.2249C31.5145 36.2511 31.3521 36.2944 31.3521 36.4321C31.3521 36.5594 33.2344 43.6323 33.8456 45.8016C33.8964 45.9819 34.0932 46 36 46C37.9072 46 38.1034 45.982 38.1532 45.8016C39.1424 42.2195 40.6479 36.5671 40.6479 36.4352C40.6479 36.2936 40.4919 36.2513 39.871 36.2249L39.0939 36.1918L40.5742 34.9445C41.3884 34.2585 42.1185 33.6563 42.1967 33.6063C42.2936 33.5444 42.8451 33.9427 43.9232 34.8536L45.5074 36.1918L44.715 36.2249L43.9225 36.258L43.924 40.8739C43.9248 43.4126 43.9541 45.6045 43.9891 45.7449L44.0528 46H47.5264C49.917 46 51 45.9622 51 45.879C51 45.7061 48.2618 24.6899 48.1901 24.313L48.1306 24L43.6309 24.0295L39.1313 24.0591L37.592 30.0969C36.7455 33.4176 36.028 36.1347 35.9977 36.1349C35.9674 36.135 35.2506 33.418 34.4049 30.0971L32.8673 24.0591L28.3684 24.0295L23.8694 24L23.8099 24.313Z" fill="black"/>
</svg>
