<svg width="1920" height="2764" viewBox="0 0 1920 2764" fill="none" xmlns="http://www.w3.org/2000/svg">
<path opacity="0.6" d="M137.143 1931.5V2284.2C137.143 2288.62 140.724 2292.2 145.143 2292.2H890.285C894.704 2292.2 898.285 2295.78 898.285 2300.2V2684.39" stroke="url(#paint0_linear_699_32369)" stroke-width="80"/>
<path opacity="0.08" d="M896.571 2764L790.857 2684L1002.29 2684L896.571 2764Z" fill="#FC3F1D"/>
<path d="M0 1891.43H1782.86C1787.28 1891.43 1790.86 1887.85 1790.86 1883.43V995.429" stroke="url(#paint1_linear_699_32369)" stroke-opacity="0.06" stroke-width="80"/>
<path d="M1920 949.714L1140.57 949.714C1136.15 949.714 1132.57 953.296 1132.57 957.714L1132.57 1496" stroke="url(#paint2_linear_699_32369)" stroke-opacity="0.16" stroke-width="80"/>
<path opacity="0.4" d="M91.4277 971.429H791.999C796.417 971.429 799.999 967.847 799.999 963.429V-2.59876e-05" stroke="url(#paint3_linear_699_32369)" stroke-width="80"/>
<path opacity="0.08" d="M11.4277 973.143L91.4277 867.429L91.4277 1078.86L11.4277 973.143Z" fill="#FC3F1D"/>
<path opacity="0.4" d="M1827.43 328L1506.29 328C1501.87 328 1498.29 331.582 1498.29 336L1498.29 797.715" stroke="url(#paint4_linear_699_32369)" stroke-width="80"/>
<path d="M0 172.571L219.429 172.571C223.847 172.571 227.429 168.99 227.429 164.571L227.429 -2.69413e-05" stroke="url(#paint5_linear_699_32369)" stroke-opacity="0.4" stroke-width="80"/>
<path opacity="0.08" d="M1907.43 324.393L1827.43 429.358L1827.43 219.429L1907.43 324.393Z" fill="#FC3F1D"/>
<defs>
<linearGradient id="paint0_linear_699_32369" x1="459.055" y1="2648.45" x2="952.778" y2="2446.13" gradientUnits="userSpaceOnUse">
<stop stop-color="#FC3F1D" stop-opacity="0.1"/>
<stop offset="0.921547" stop-color="white" stop-opacity="0.4"/>
</linearGradient>
<linearGradient id="paint1_linear_699_32369" x1="1448.08" y1="1750.44" x2="1402.59" y2="1186.72" gradientUnits="userSpaceOnUse">
<stop stop-color="#FC3F1D"/>
<stop offset="1" stop-color="white" stop-opacity="0.4"/>
</linearGradient>
<linearGradient id="paint2_linear_699_32369" x1="1586.97" y1="1290.74" x2="1252.19" y2="994.714" gradientUnits="userSpaceOnUse">
<stop stop-color="#FC3F1D" stop-opacity="0.2"/>
<stop offset="0.921547" stop-color="white" stop-opacity="0.4"/>
</linearGradient>
<linearGradient id="paint3_linear_699_32369" x1="391.106" y1="364.996" x2="838.361" y2="565.123" gradientUnits="userSpaceOnUse">
<stop stop-color="#FC3F1D" stop-opacity="0.2"/>
<stop offset="0.921547" stop-color="white" stop-opacity="0.4"/>
</linearGradient>
<linearGradient id="paint4_linear_699_32369" x1="1688.22" y1="621.228" x2="1477.76" y2="530.758" gradientUnits="userSpaceOnUse">
<stop stop-color="#FC3F1D" stop-opacity="0.2"/>
<stop offset="0.921547" stop-color="white" stop-opacity="0.4"/>
</linearGradient>
<linearGradient id="paint5_linear_699_32369" x1="96.187" y1="64.8404" x2="200.382" y2="149.077" gradientUnits="userSpaceOnUse">
<stop stop-color="#FC3F1D" stop-opacity="0.2"/>
<stop offset="0.921547" stop-color="white" stop-opacity="0.4"/>
</linearGradient>
</defs>
</svg>
