<svg width="100" height="100" viewBox="0 0 100 100" fill="none" xmlns="http://www.w3.org/2000/svg">
<path d="M3 81.8007C3 81.2886 11.6711 19.0432 11.8979 17.9269L12.0865 17L26.3332 17.0873L40.5799 17.175L45.4489 35.0582C48.127 44.8941 50.3966 52.9411 50.4926 52.9407C50.5886 52.9404 52.8606 44.8928 55.5414 35.0575L60.4158 17.175L74.6645 17.0873L88.9135 17L89.1021 17.9269C89.3289 19.0432 98 81.2886 98 81.8007C98 82.0472 94.5706 82.159 87.0004 82.159H76.0005L75.7988 81.4034C75.688 80.9876 75.5951 74.4956 75.5927 66.9766L75.588 53.3054L78.0975 53.2074L80.6066 53.1093L75.59 49.1458C72.1761 46.448 70.4296 45.2682 70.1229 45.4516C69.8753 45.5997 67.5632 47.3833 64.9848 49.4151L60.2974 53.1093L62.758 53.2074C64.7243 53.2856 65.2183 53.4109 65.2183 53.8304C65.2183 54.2209 60.4509 70.962 57.3186 81.5713C57.1607 82.1056 56.5395 82.159 50.5 82.159C44.4618 82.159 43.8386 82.1053 43.6777 81.5713C41.7423 75.1465 35.7817 54.1981 35.7817 53.8209C35.7817 53.4132 36.2958 53.285 38.242 53.2074L40.7026 53.1093L36.0152 49.4151C33.4368 47.3833 31.1274 45.6014 30.8832 45.455C30.5845 45.2763 28.7811 46.4893 25.3912 49.1491L20.3439 53.1093L22.8777 53.2074L25.412 53.3054V66.6828C25.412 74.0402 25.318 80.5323 25.2029 81.1096L24.9938 82.159H13.9969C6.4287 82.159 3 82.0472 3 81.8007Z" fill="black"/>
</svg>
