<svg width="41" height="39" viewBox="0 0 41 39" fill="none" xmlns="http://www.w3.org/2000/svg">
<path d="M15.4679 1.06551C15.4277 1.06551 15.3876 1.06551 15.3876 1.02497C15.2673 0.984427 15.2271 0.822265 15.3074 0.741184C15.3475 0.619563 15.508 0.579022 15.5882 0.660103C15.7086 0.700644 15.7487 0.862806 15.6685 0.943887C15.6284 0.984427 15.5481 1.06551 15.4679 1.06551Z" fill="black"/>
<path d="M40.2241 29.4845C40.1038 29.4845 40.0235 29.4034 40.0235 29.2818V15.1737L39.9433 15.1331C39.8229 15.0926 39.7828 14.9304 39.863 14.8493C39.9032 14.7277 40.0636 14.6872 40.1439 14.7683L40.3445 14.8899C40.4248 14.9304 40.4649 15.0115 40.4649 15.0926V29.2818C40.4649 29.3629 40.3445 29.4845 40.2241 29.4845Z" fill="black"/>
<path d="M15.308 1.10609C15.1877 1.10609 15.1074 1.02501 15.1074 0.903386C15.1074 0.781765 15.1877 0.700684 15.308 0.700684C15.4284 0.700684 15.5086 0.781765 15.5086 0.903386C15.5488 1.02501 15.4284 1.10609 15.308 1.10609Z" fill="black"/>
<path d="M0.863222 9.33576V23.5655C0.863222 23.6466 0.782979 23.7682 0.702733 23.7682C0.702733 23.7682 0.662612 23.7682 0.622489 23.7682C0.502121 23.7682 0.421875 23.6871 0.421875 23.5655V9.33576V9.29522C0.421875 9.25468 0.421871 9.25468 0.461994 9.21414C0.461994 9.21414 0.461997 9.1736 0.502119 9.1736L0.542245 9.13306H0.582364H0.622489H0.662608H0.702733C0.742856 9.13306 0.742855 9.13306 0.782978 9.1736C0.8231 9.1736 0.863222 9.25468 0.863222 9.33576Z" fill="black"/>
<path d="M15.5887 1.02504C15.5085 1.02504 15.4282 0.9845 15.3881 0.903419C15.348 0.781798 15.3881 0.660176 15.5085 0.619636C15.5887 0.538554 15.7492 0.579095 15.7893 0.660176C15.8696 0.741257 15.8294 0.903419 15.7091 0.9845C15.7091 0.9845 15.669 0.9845 15.669 1.02504C15.669 0.9845 15.6288 1.02504 15.5887 1.02504Z" fill="black"/>
<path d="M8.32668 5.16004C8.20631 5.16004 8.08594 5.07896 8.08594 4.95734C8.08594 4.83572 8.16618 4.75464 8.28655 4.75464C8.40692 4.75464 8.52729 4.83572 8.52729 4.95734C8.52729 5.07896 8.44705 5.16004 8.32668 5.16004Z" fill="black"/>
<path d="M40.2238 15.2547C40.1837 15.2547 40.1435 15.2547 40.1034 15.2141L34.1652 11.7682L28.7888 8.64654C28.7888 8.64654 28.7888 8.64654 28.7487 8.64654L27.6252 7.99789L15.5884 1.02492L15.4279 1.106C15.3075 1.14654 15.1872 1.14654 15.147 1.02492C15.1069 0.903301 15.1069 0.781679 15.2273 0.741138L15.468 0.619517C15.5483 0.578976 15.6285 0.578976 15.7088 0.619517L28.9894 8.32222L29.0696 8.36276L34.3659 11.4438C34.3659 11.4438 34.406 11.4438 34.406 11.4844L40.3441 14.9303C40.4645 14.9709 40.5046 15.133 40.4244 15.2141C40.3843 15.2141 40.304 15.2547 40.2238 15.2547Z" fill="black"/>
<path d="M8.28613 5.16016C8.20589 5.16016 8.12564 5.11962 8.08552 5.03854C8.0454 4.91692 8.0454 4.79529 8.16577 4.75475L8.36638 4.63313C8.48675 4.59259 8.60712 4.59259 8.64724 4.71421C8.68736 4.83584 8.68737 4.95746 8.567 4.998L8.36638 5.11962C8.36638 5.16016 8.32626 5.16016 8.28613 5.16016Z" fill="black"/>
<path d="M40.4646 15.0925C40.4646 15.1736 40.4244 15.2546 40.3442 15.2952L40.2238 15.3763L40.0232 15.4979L34.8875 18.4979C34.8875 18.4979 34.8875 18.4979 34.8474 18.4979L33.8844 19.0654L33.4431 19.3087L33.2425 19.4303L33.0017 19.5519L31.9585 20.16L31.5172 20.4033L31.2765 20.5654L30.8351 20.8087L25.7395 23.7682H25.6994L25.579 23.8492H25.5389C25.4988 23.8898 25.4587 23.8898 25.4185 23.8898C25.3784 23.8898 25.3383 23.8898 25.2982 23.8492L25.2179 23.8087L21.8476 21.8627L20.8445 21.2952L19.36 20.4438C19.36 20.4438 19.36 20.4438 19.3199 20.4438L16.9928 19.106L15.5082 18.2546L14.6255 17.7682L14.1842 17.5249L12.9403 16.7952L12.499 16.5519L9.57004 14.8492L8.4466 14.2006L7.5639 13.6736L7.12254 13.4303L6.96206 13.3492L6.5207 13.106L5.43739 12.4979L4.99604 12.2546L4.19358 11.7682L3.75223 11.5249L2.86953 10.9979L2.42818 10.7546L2.34794 10.7141L2.02695 10.5519L1.82634 10.4303L0.783144 9.82221L0.502286 9.66004H0.46216C0.422038 9.66004 0.381916 9.6195 0.381916 9.57896C0.381916 9.53842 0.341797 9.49788 0.341797 9.45734C0.341797 9.4168 0.341797 9.4168 0.341797 9.37626V9.33572C0.341797 9.33572 0.341793 9.29518 0.381916 9.29518L0.422041 9.25464H0.46216H0.502286H0.542411H0.58253C0.622653 9.25464 0.622651 9.25464 0.662774 9.29518L0.903513 9.4168L0.983758 9.45734L1.70597 9.86275L2.18744 10.1465L2.38806 10.2682L2.82941 10.5114L3.71211 11.0384L4.15346 11.2817L4.95592 11.7682L5.51763 11.8898L6.60095 12.4979L7.0423 12.7411L7.20279 12.8222L7.64414 13.0654L8.52684 13.5925L9.65028 14.2411L13.0206 16.1871L13.4619 16.4303L14.7057 17.16L15.1471 17.4033L16.0298 17.8898L17.5143 18.7411L19.6007 19.9573C19.6007 19.9573 19.6007 19.9573 19.6409 19.9573L21.1655 20.8492L22.1686 21.4573L25.4587 23.3627L30.3938 20.4844L30.8351 20.2411L31.116 20.079L31.5573 19.8357L32.3999 19.3492L32.6808 19.1871L32.9616 19.0249L33.082 18.9438L33.3628 18.7817L39.7424 15.0519L39.8226 15.0114L39.943 14.9303L40.0232 14.8898C40.0634 14.8898 40.1035 14.8492 40.1436 14.8492C40.1837 14.8492 40.1837 14.8492 40.2238 14.8492C40.264 14.8492 40.264 14.8492 40.3041 14.8898C40.3442 14.8898 40.3442 14.9303 40.3843 14.9709C40.3843 14.9709 40.3843 15.0114 40.4245 15.0114L40.4646 15.0925Z" fill="black"/>
<path d="M22.0482 21.9439C22.008 21.9439 21.9679 21.9439 21.9278 21.9033L20.9247 21.2952C20.8044 21.2142 20.7642 21.0925 20.8445 21.0114C20.9247 20.8898 21.0451 20.8493 21.1253 20.9304L22.1284 21.5385C22.2488 21.6196 22.2889 21.7412 22.2087 21.8223C22.1685 21.9033 22.1284 21.9439 22.0482 21.9439Z" fill="black"/>
<path d="M10.7735 29.4439C10.7334 29.525 10.6531 29.5655 10.5729 29.5655C10.5327 29.5655 10.4926 29.5655 10.4525 29.525L10.4124 29.4844H10.3722L7.68402 27.9439L7.60377 27.9033L7.16243 27.6601L5.95874 26.9709L5.15629 26.5249C5.15629 26.5249 5.15628 26.5249 5.11616 26.5249L5.07604 26.4844L4.8353 26.3628L3.35076 25.5114L2.94953 25.2682L2.42793 24.9439L1.98658 24.7006L1.86621 24.6195L1.42486 24.3763H1.38474L0.823023 24.052L0.582284 23.9304C0.502038 23.8898 0.461914 23.8087 0.461914 23.7277V9.33576V9.29522C0.461914 9.25468 0.461917 9.25468 0.502039 9.21414C0.502039 9.21414 0.502042 9.1736 0.542165 9.1736L0.582284 9.13306H0.622409H0.662528H0.702653H0.742779C0.782901 9.13306 0.7829 9.13306 0.823023 9.1736C0.863146 9.21414 0.903267 9.29522 0.903267 9.33576V23.4844L1.18413 23.6466L1.94646 24.0925H1.98658L2.5483 24.4168L2.58842 24.4574L2.74892 24.5385L2.94953 24.6601L3.02978 24.7006L3.39088 24.9033L3.83223 25.1466L4.27358 25.3898L4.39395 25.4304L5.07604 25.8358C5.07604 25.8358 5.07604 25.8358 5.11616 25.8358L5.39702 25.9979C5.39702 25.9979 5.39702 25.9979 5.43714 25.9979L5.718 26.1601L5.87849 26.2412L5.91862 26.2817L7.76427 27.3358L10.5327 28.9168L10.613 28.9574L10.6932 28.9979C10.8136 29.2006 10.8537 29.3222 10.7735 29.4439Z" fill="black"/>
<path d="M25.5795 23.8899C25.4592 23.8899 25.3789 23.8088 25.3789 23.7277C25.3789 23.6872 25.3789 23.6061 25.3789 23.5655C25.419 23.4439 25.5394 23.4034 25.6598 23.4439C25.74 23.4845 25.7801 23.5655 25.7801 23.6466C25.7801 23.7682 25.6999 23.8899 25.5795 23.8899Z" fill="black"/>
<path d="M25.4988 38.1194C25.4587 38.1194 25.4186 38.1194 25.3784 38.0789L22.9711 36.7005C22.9711 36.7005 22.9711 36.7005 22.931 36.7005L22.4094 36.4167C22.4094 36.4167 22.4094 36.4167 22.3692 36.4167L20.8446 35.5249C20.8446 35.5249 20.8446 35.5249 20.8045 35.5249L9.65031 29.1195C9.52995 29.0789 9.48982 28.9167 9.57007 28.8357C9.61019 28.714 9.77068 28.6735 9.85093 28.7546L20.9649 35.16C20.9649 35.16 20.9649 35.16 21.0051 35.16L22.5297 36.0519C22.5297 36.0519 22.5297 36.0519 22.5699 36.0519L23.1316 36.3762H23.1717L25.5791 37.7546C25.6994 37.7951 25.7395 37.9573 25.6593 38.0384C25.6593 38.0789 25.5791 38.1194 25.4988 38.1194Z" fill="black"/>
<path d="M34.7267 18.4979C34.6465 18.4979 34.6063 18.4574 34.5662 18.4169C34.486 18.3358 34.5261 18.1736 34.6063 18.0925C34.6866 18.0115 34.8471 18.052 34.9273 18.1331C35.0076 18.2142 34.9674 18.3763 34.8872 18.4574C34.8471 18.4979 34.7668 18.4979 34.7267 18.4979Z" fill="black"/>
<path d="M40.2241 15.2952C40.1839 15.2952 40.1438 15.2952 40.1037 15.2546L39.9031 15.133C39.7827 15.0519 39.7827 14.9303 39.8228 14.8087C39.9031 14.6871 40.0234 14.6871 40.1438 14.7276L40.3444 14.8492C40.4648 14.8898 40.5049 15.0519 40.4247 15.133C40.3845 15.2546 40.3043 15.2952 40.2241 15.2952Z" fill="black"/>
<path d="M33.1623 19.4304C33.1221 19.4304 33.082 19.4304 33.0419 19.3898L8.4065 4.99792C8.32626 4.95738 8.28613 4.8763 8.28613 4.79522C8.28613 4.71414 8.32626 4.63306 8.36638 4.59252L15.428 0.538462C15.5082 0.497922 15.5885 0.497922 15.6687 0.538462C15.7891 0.579003 15.8292 0.741165 15.7891 0.862786C15.749 0.943867 15.6687 0.984408 15.5885 0.984408L15.428 1.06549L8.9281 4.79522L33.2425 19.0249C33.3629 19.106 33.403 19.2277 33.3228 19.3087C33.2826 19.3898 33.2425 19.4304 33.1623 19.4304Z" fill="black"/>
<path d="M40.1435 15.2142C40.1034 15.2142 40.0232 15.1737 39.983 15.1331C39.9028 15.052 39.9028 14.8899 39.983 14.8088L40.0232 14.7683C40.1435 14.6872 40.2639 14.7277 40.3441 14.8493C40.4244 14.971 40.3843 15.0926 40.2639 15.1331C40.2238 15.2142 40.1836 15.2142 40.1435 15.2142Z" fill="black"/>
<path d="M25.4986 38.444C25.4584 38.444 25.4183 38.444 25.3782 38.4034C25.2979 38.3629 25.2578 38.2818 25.2578 38.2007V23.6872C25.2578 23.5656 25.3381 23.4845 25.4584 23.4845C25.5788 23.4845 25.659 23.5656 25.659 23.6872V37.8359L40.023 29.444V15.0926V15.0521C40.023 14.9305 40.1032 14.8088 40.2236 14.8088C40.344 14.8088 40.4242 14.8899 40.4242 15.0115L40.2236 15.0521H40.4242V29.5656C40.4242 29.6467 40.3841 29.7278 40.3039 29.7683L25.5788 38.4034C25.5788 38.444 25.5387 38.444 25.4986 38.444Z" fill="black"/>
<path d="M33.0818 19.3898C33.0818 19.4709 33.0417 19.5114 33.0417 19.552L33.0016 19.5925L32.0386 20.1601L31.5973 20.4033L31.3565 20.5655L30.9152 20.8087L25.7795 23.8087H25.7393C25.6992 23.8087 25.6992 23.8493 25.6591 23.8493C25.6591 23.8493 25.6591 23.8493 25.619 23.8493C25.5789 23.8493 25.5387 23.8493 25.5387 23.8087C25.4585 23.7682 25.4184 23.6871 25.4184 23.6466C25.4184 23.6466 25.4184 23.6466 25.4184 23.606V23.5655V23.5249C25.4184 23.5249 25.4184 23.5249 25.4184 23.4844L25.4585 23.4439C25.4585 23.4439 25.4986 23.4439 25.4986 23.4033H25.5387L30.4337 20.5655L30.8751 20.3222L31.1559 20.1601L31.5973 19.9168L32.4399 19.4303L23.9338 14.4439L22.8104 13.7952L21.9277 13.2682L21.4863 13.0249L20.4431 12.4168L20.0018 12.1736L18.3166 11.1601L17.8753 10.9168L15.9093 9.74115L14.4247 8.8898L13.542 8.36277L13.1007 8.11953L9.16864 5.80872L8.72729 5.56548L8.28594 5.32223L7.04213 6.05196L6.60078 6.29521L5.51747 6.90331L5.07611 7.14656L4.27366 7.63304L3.83231 7.87629L2.94961 8.40331L2.70887 8.52494L2.50826 8.64656H2.30764L2.10703 8.76818L1.7058 9.01142L1.10396 9.33575L0.903347 9.45737L0.782978 9.53845C0.742855 9.57899 0.662609 9.57899 0.582364 9.53845H0.542245C0.502122 9.53845 0.461994 9.49791 0.461994 9.45737C0.461994 9.41683 0.421875 9.37629 0.421875 9.33575C0.421875 9.29521 0.421875 9.29521 0.421875 9.25467V9.21412C0.421875 9.21412 0.421871 9.17358 0.461994 9.17358L0.502119 9.13304H0.542245L1.58543 8.52494L1.86629 8.36277L1.98666 8.28169L2.18728 8.16007L2.46813 7.99791L2.5885 7.91683L2.86936 7.75467L3.75207 7.22764L4.19341 6.98439L4.99587 6.49791L6.52054 5.60602L6.96189 5.36277L8.12545 4.71412C8.16557 4.71412 8.16557 4.67358 8.20569 4.67358H8.24582C8.28594 4.67358 8.28594 4.67358 8.32606 4.71412L8.36619 4.75466L8.64705 4.91683L9.08839 5.16007L13.4618 7.71413L13.9031 7.95737L14.7858 8.4844L16.2704 9.33575L17.795 10.2276L18.2364 10.4709L20.3629 11.7276L20.8043 11.9709L21.4061 12.3357L21.8474 12.579L22.7301 13.106L23.653 13.633L23.8536 13.7547L24.0141 13.8357L32.801 18.9844L32.9213 19.0655C33.0417 19.2276 33.0818 19.3087 33.0818 19.3898Z" fill="black"/>
</svg>
