<svg width="24" height="24" viewBox="0 0 24 24" fill="none" xmlns="http://www.w3.org/2000/svg">
<circle cx="12" cy="12" r="12" fill="#0E0E0E"/>
<path fill-rule="evenodd" clip-rule="evenodd" d="M8.03028 8.1138C8.00402 8.25086 7 15.8931 7 15.956C7 15.9863 7.39701 16 8.27333 16H9.54665L9.57086 15.8711C9.58419 15.8003 9.59507 15.0032 9.59507 14.0999V12.4575L9.30163 12.4454L9.00824 12.4334L9.59267 11.9472C9.98518 11.6206 10.194 11.4717 10.2286 11.4936C10.2569 11.5116 10.5243 11.7304 10.8228 11.9798L11.3656 12.4334L11.0807 12.4454C10.8553 12.4549 10.7958 12.4707 10.7958 12.5207C10.7958 12.5671 11.4859 15.139 11.7101 15.9278C11.7287 15.9934 11.8008 16 12.5 16C13.1993 16 13.2712 15.9934 13.2895 15.9278C13.6522 14.6253 14.2042 12.5699 14.2042 12.5219C14.2042 12.4704 14.147 12.455 13.9193 12.4454L13.6344 12.4334L14.1772 11.9798C14.4757 11.7304 14.7435 11.5114 14.7721 11.4932C14.8076 11.4707 15.0099 11.6155 15.4052 11.9467L15.986 12.4334L15.6955 12.4454L15.4049 12.4575L15.4055 14.136C15.4057 15.0591 15.4165 15.8562 15.4293 15.9072L15.4527 16H16.7264C17.6029 16 18 15.9863 18 15.956C18 15.8931 16.996 8.25086 16.9697 8.1138L16.9479 8L15.298 8.01072L13.6481 8.02148L13.0837 10.217C12.7733 11.4246 12.5103 12.4126 12.4991 12.4127C12.488 12.4127 12.2252 11.4247 11.9151 10.2171L11.3514 8.02148L9.70174 8.01072L8.05213 8L8.03028 8.1138Z" fill="white"/>
</svg>
