<svg width="36" height="48" viewBox="0 0 36 48" fill="none" xmlns="http://www.w3.org/2000/svg">
<g clip-path="url(#clip0_402_5128)">
<path d="M35.2041 32.4187C35.2813 32.4187 35.3584 32.342 35.3584 32.2654V31.8056C35.3584 31.729 35.2813 31.6523 35.2041 31.6523C35.127 31.6523 35.0498 31.729 35.0498 31.8056V32.2654C35.0498 32.3676 35.127 32.4187 35.2041 32.4187Z" fill="#0E0E0E"/>
<path d="M34.5869 34.2323C34.6641 34.2323 34.7412 34.1556 34.7412 34.079V32.623C34.7412 32.5464 34.6641 32.4697 34.5869 32.4697C34.5098 32.4697 34.4326 32.5464 34.4326 32.623V34.079C34.4326 34.1812 34.5098 34.2323 34.5869 34.2323Z" fill="#0E0E0E"/>
<path d="M35.2041 34.1815C35.2556 34.1815 35.307 34.156 35.3327 34.1049C35.3584 34.0283 35.3327 33.9516 35.2813 33.9005L34.6641 33.594C34.5869 33.5685 34.5098 33.594 34.4583 33.6451C34.4326 33.7217 34.4583 33.7984 34.5098 33.8494L35.127 34.156C35.1527 34.1815 35.1784 34.1815 35.2041 34.1815Z" fill="#0E0E0E"/>
<path d="M35.2041 34.6413C35.2813 34.6413 35.3584 34.5647 35.3584 34.4881V34.0283C35.3584 33.9516 35.2813 33.875 35.2041 33.875C35.127 33.875 35.0498 33.9516 35.0498 34.0283V34.4881C35.0498 34.5902 35.127 34.6413 35.2041 34.6413Z" fill="#0E0E0E"/>
<path d="M35.2045 31.9584C35.256 31.9584 35.3074 31.9329 35.3331 31.8818C35.3846 31.8051 35.3588 31.7285 35.2817 31.6774L34.3301 31.1154C34.253 31.0644 34.1758 31.0899 34.1244 31.1665C34.073 31.2432 34.0987 31.3198 34.1758 31.3709L35.1274 31.9329C35.1531 31.9584 35.1788 31.9584 35.2045 31.9584Z" fill="#0E0E0E"/>
<path d="M33.9698 33.1341C33.9955 33.1341 34.0212 33.1341 34.047 33.1086L35.2814 32.3933C35.3585 32.3423 35.3842 32.2656 35.3328 32.189C35.2814 32.1124 35.2042 32.0868 35.1271 32.1379L33.8926 32.8531C33.8155 32.9042 33.7898 32.9809 33.8412 33.0575C33.8669 33.1086 33.9184 33.1341 33.9698 33.1341Z" fill="#0E0E0E"/>
<path d="M34.0216 32.6231C34.0473 32.6231 34.073 32.6231 34.0987 32.5975L35.256 31.9334C35.3331 31.8823 35.3588 31.8057 35.3074 31.729C35.256 31.6524 35.1788 31.6269 35.1017 31.6779L33.9444 32.3421C33.8673 32.3932 33.8415 32.4698 33.893 32.5464C33.9444 32.5975 33.9958 32.6231 34.0216 32.6231Z" fill="#0E0E0E"/>
<path d="M34.0469 31.5242C34.0727 31.5242 34.0984 31.5242 34.1241 31.4986L34.3298 31.3709C34.407 31.3198 34.4327 31.2432 34.3813 31.1665C34.3298 31.0899 34.2527 31.0644 34.1755 31.1154L33.9698 31.2432C33.8926 31.2943 33.8669 31.3709 33.9184 31.4475C33.9441 31.4986 33.9955 31.5242 34.0469 31.5242Z" fill="#0E0E0E"/>
<path d="M32.8897 35.2284C32.9154 35.2284 32.9412 35.2284 32.9669 35.2029L34.6642 34.2322C34.7414 34.1811 34.7671 34.1045 34.7156 34.0279C34.6642 33.9512 34.5871 33.9257 34.5099 33.9768L32.8126 34.9475C32.7354 34.9985 32.7097 35.0752 32.7611 35.1518C32.7869 35.2029 32.8383 35.2284 32.8897 35.2284Z" fill="#0E0E0E"/>
<path d="M32.8897 35.2285C32.9668 35.2285 33.044 35.1519 33.044 35.0753V34.5644C33.044 34.4878 32.9668 34.4111 32.8897 34.4111C32.8125 34.4111 32.7354 34.4878 32.7354 34.5644V35.0753C32.7354 35.1519 32.7868 35.2285 32.8897 35.2285Z" fill="#0E0E0E"/>
<path d="M32.8899 35.2285C32.9413 35.2285 32.9927 35.2029 33.0185 35.1518C33.0442 35.0752 33.0185 34.9986 32.9413 34.9475L32.4527 34.7176C32.3755 34.692 32.2984 34.7176 32.2469 34.7942C32.2212 34.8709 32.2469 34.9475 32.3241 34.9986L32.8127 35.2285C32.8384 35.2285 32.8642 35.2285 32.8899 35.2285Z" fill="#0E0E0E"/>
<path d="M25.0977 39.7241C25.1748 39.7241 25.252 39.6474 25.252 39.5708V38.83C25.252 38.7534 25.1748 38.6768 25.0977 38.6768C25.0205 38.6768 24.9434 38.7534 24.9434 38.83V39.5708C24.9434 39.6474 24.9948 39.7241 25.0977 39.7241Z" fill="#0E0E0E"/>
<path d="M23.375 40.6947C23.4522 40.6947 23.5293 40.6181 23.5293 40.5415V40.1328C23.5293 40.0561 23.4522 39.9795 23.375 39.9795C23.2979 39.9795 23.2207 40.0561 23.2207 40.1328V40.5415C23.2207 40.6436 23.2979 40.6947 23.375 40.6947Z" fill="#0E0E0E"/>
<path d="M23.3741 40.6952C23.3998 40.6952 23.4255 40.6952 23.4512 40.6697L25.1486 39.699C25.2257 39.6479 25.2514 39.5713 25.2 39.4947C25.1486 39.418 25.0714 39.3925 24.9943 39.4436L23.2969 40.4142C23.2198 40.4653 23.1941 40.542 23.2455 40.6186C23.2712 40.6697 23.3227 40.6952 23.3741 40.6952Z" fill="#0E0E0E"/>
<path d="M23.3749 40.6951C23.4263 40.6951 23.4778 40.6696 23.5035 40.6185C23.5292 40.5418 23.5035 40.4652 23.4263 40.4141L23.0406 40.2098C22.9634 40.1842 22.8863 40.2098 22.8348 40.2864C22.8091 40.363 22.8348 40.4397 22.912 40.4908L23.2977 40.6951C23.3235 40.6951 23.3492 40.6951 23.3749 40.6951Z" fill="#0E0E0E"/>
<path d="M11.4932 45.9821C11.519 45.9821 11.5447 45.9821 11.5704 45.9566L12.059 45.6756C12.1362 45.6245 12.1619 45.5479 12.1104 45.4712C12.059 45.3946 11.9819 45.369 11.9047 45.4201L11.4161 45.7011C11.3389 45.7522 11.3132 45.8288 11.3646 45.9055C11.3904 45.9566 11.4418 45.9821 11.4932 45.9821Z" fill="#0E0E0E"/>
<path d="M13.1905 46.8509C13.2419 46.8509 13.2934 46.8254 13.3191 46.7743C13.3448 46.6977 13.3191 46.621 13.2676 46.5699L11.5703 45.7014C11.4932 45.6759 11.416 45.7014 11.3646 45.7525C11.3389 45.8292 11.3646 45.9058 11.416 45.9569L13.1133 46.8254C13.1391 46.8509 13.1648 46.8509 13.1905 46.8509Z" fill="#0E0E0E"/>
<path d="M11.4932 46.4421C11.5703 46.4421 11.6475 46.3655 11.6475 46.2888V45.829C11.6475 45.7524 11.5703 45.6758 11.4932 45.6758C11.416 45.6758 11.3389 45.7524 11.3389 45.829V46.2888C11.3389 46.391 11.416 46.4421 11.4932 46.4421Z" fill="#0E0E0E"/>
<path d="M13.1905 47.3363C13.2419 47.3363 13.2934 47.3107 13.3191 47.2596C13.3448 47.183 13.3191 47.1064 13.2676 47.0553L11.5703 46.1868C11.4932 46.1612 11.416 46.1868 11.3646 46.2379C11.3389 46.3145 11.3646 46.3911 11.416 46.4422L13.1133 47.3107C13.1391 47.3107 13.1648 47.3363 13.1905 47.3363Z" fill="#0E0E0E"/>
<path d="M15.1709 45.4464C15.2481 45.4464 15.3252 45.3698 15.3252 45.2932V43.7861C15.3252 43.7094 15.2481 43.6328 15.1709 43.6328C15.0938 43.6328 15.0166 43.7094 15.0166 43.7861V45.2932C15.0166 45.3954 15.0938 45.4464 15.1709 45.4464Z" fill="#0E0E0E"/>
<path d="M13.8594 44.8582C13.9365 44.8582 14.0137 44.7816 14.0137 44.705V44.5517C14.0137 44.4751 13.9365 44.3984 13.8594 44.3984C13.7822 44.3984 13.7051 44.4751 13.7051 44.5517V44.705C13.7051 44.8071 13.7822 44.8582 13.8594 44.8582Z" fill="#0E0E0E"/>
<path d="M13.4736 46.4169C13.525 46.4169 13.5765 46.3913 13.6022 46.3402C13.6279 46.2636 13.6022 46.187 13.525 46.1359L11.7505 45.2674C11.6734 45.2418 11.5962 45.2674 11.5448 45.344C11.5191 45.4207 11.5448 45.4973 11.622 45.5484L13.3964 46.4169C13.4221 46.4169 13.4479 46.4169 13.4736 46.4169Z" fill="#0E0E0E"/>
<path d="M13.4737 46.4169C13.4994 46.4169 13.5251 46.4169 13.5509 46.3914L15.2482 45.4207C15.3253 45.3696 15.3511 45.293 15.2996 45.2163C15.2482 45.1397 15.171 45.1142 15.0939 45.1653L13.3966 46.1359C13.3194 46.187 13.2937 46.2636 13.3451 46.3403C13.3708 46.3914 13.4223 46.4169 13.4737 46.4169Z" fill="#0E0E0E"/>
<path d="M11.6729 45.5483C11.75 45.5483 11.8272 45.4717 11.8272 45.395V44.6542C11.8272 44.5776 11.75 44.501 11.6729 44.501C11.5957 44.501 11.5186 44.5776 11.5186 44.6542V45.395C11.5443 45.4972 11.5957 45.5483 11.6729 45.5483Z" fill="#0E0E0E"/>
<path d="M13.1905 44.6282C13.2162 44.6282 13.2419 44.6282 13.2677 44.6026L15.0421 43.5808C15.1193 43.5298 15.145 43.4531 15.0936 43.3765C15.0421 43.2999 14.965 43.2743 14.8878 43.3254L13.1133 44.3472C13.0362 44.3983 13.0105 44.4749 13.0619 44.5515C13.0876 44.6026 13.1391 44.6282 13.1905 44.6282Z" fill="#0E0E0E"/>
<path d="M12.213 44.092C12.2387 44.092 12.2644 44.092 12.2901 44.0665L14.0646 43.0447C14.1417 42.9936 14.1675 42.917 14.116 42.8404C14.0646 42.7637 13.9874 42.7382 13.9103 42.7893L12.1358 43.811C12.0587 43.8621 12.0329 43.9388 12.0844 44.0154C12.1101 44.0409 12.1615 44.092 12.213 44.092Z" fill="#0E0E0E"/>
<path d="M13.1909 44.6283C13.2423 44.6283 13.2937 44.6028 13.3194 44.5517C13.3709 44.4751 13.3452 44.3984 13.268 44.3473L12.3165 43.7854C12.2393 43.7343 12.1622 43.7598 12.1107 43.8365C12.0593 43.9131 12.085 43.9897 12.1622 44.0408L13.1137 44.6028C13.1394 44.6283 13.1651 44.6283 13.1909 44.6283Z" fill="#0E0E0E"/>
<path d="M12.2129 44.5525C12.29 44.5525 12.3672 44.4758 12.3672 44.3992V43.9394C12.3672 43.8628 12.29 43.7861 12.2129 43.7861C12.1357 43.7861 12.0586 43.8628 12.0586 43.9394V44.3992C12.0843 44.4758 12.1357 44.5525 12.2129 44.5525Z" fill="#0E0E0E"/>
<path d="M10.3613 43.5816C10.4385 43.5816 10.5156 43.505 10.5156 43.4283V42.9941C10.5156 42.9175 10.4385 42.8408 10.3613 42.8408C10.2842 42.8408 10.207 42.9175 10.207 42.9941V43.4283C10.207 43.505 10.2842 43.5816 10.3613 43.5816Z" fill="#0E0E0E"/>
<path d="M13.1909 45.0883C13.2423 45.0883 13.2937 45.0627 13.3194 45.0117C13.3709 44.935 13.3452 44.8584 13.268 44.8073L12.3165 44.2453C12.2393 44.1942 12.1622 44.2198 12.1107 44.2964C12.0593 44.373 12.085 44.4497 12.1622 44.5008L13.1137 45.0627C13.1394 45.0883 13.1651 45.0883 13.1909 45.0883Z" fill="#0E0E0E"/>
<path d="M13.1905 47.3359C13.2162 47.3359 13.2419 47.3359 13.2677 47.3103L35.2815 34.6404C35.3587 34.5893 35.3844 34.5127 35.3329 34.4361C35.2815 34.3594 35.2043 34.3339 35.1272 34.385L13.1133 47.0549C13.0362 47.106 13.0105 47.1826 13.0619 47.2592C13.0876 47.2848 13.1391 47.3359 13.1905 47.3359Z" fill="#0E0E0E"/>
<path d="M13.2676 46.8512C13.2934 46.8512 13.3191 46.8512 13.3448 46.8256L35.2815 34.2068C35.3586 34.1557 35.3844 34.0791 35.3329 34.0025C35.2815 33.9258 35.2043 33.9003 35.1272 33.9514L13.1905 46.5702C13.1133 46.6213 13.0876 46.6979 13.1391 46.7746C13.1648 46.8256 13.2162 46.8512 13.2676 46.8512Z" fill="#0E0E0E"/>
<path d="M13.1905 45.0885C13.2162 45.0885 13.2419 45.0885 13.2677 45.063L15.4536 43.8113C15.5308 43.7602 15.5565 43.6836 15.505 43.607C15.4536 43.5303 15.3765 43.5048 15.2993 43.5559L13.1133 44.8075C13.0362 44.8586 13.0105 44.9353 13.0619 45.0119C13.0876 45.063 13.1391 45.0885 13.1905 45.0885Z" fill="#0E0E0E"/>
<path d="M12.8819 45.4203C12.9076 45.4203 12.9333 45.4203 12.9591 45.3948L13.9363 44.8328C14.0135 44.7817 14.0392 44.7051 13.9877 44.6284C13.9363 44.5518 13.8592 44.5263 13.782 44.5774L12.8048 45.1393C12.7276 45.1904 12.7019 45.2671 12.7533 45.3437C12.779 45.3948 12.8305 45.4203 12.8819 45.4203Z" fill="#0E0E0E"/>
<path d="M11.3135 43.6578C11.3393 43.6578 11.365 43.6578 11.3907 43.6322L13.2423 42.5594C13.3195 42.5083 13.3452 42.4316 13.2938 42.355C13.2423 42.2784 13.1652 42.2528 13.088 42.3039L11.2364 43.3768C11.1592 43.4279 11.1335 43.5045 11.185 43.5811C11.2107 43.6322 11.2621 43.6578 11.3135 43.6578Z" fill="#0E0E0E"/>
<path d="M10.3614 43.0961C10.3871 43.0961 10.4128 43.0961 10.4386 43.0705L12.2645 42.0232C12.3416 41.9721 12.3673 41.8955 12.3159 41.8189C12.2645 41.7422 12.1873 41.7167 12.1102 41.7678L10.2842 42.8151C10.2071 42.8662 10.1814 42.9428 10.2328 43.0195C10.2585 43.0705 10.31 43.0961 10.3614 43.0961Z" fill="#0E0E0E"/>
<path d="M11.3129 43.6576C11.3644 43.6576 11.4158 43.6321 11.4415 43.581C11.493 43.5044 11.4672 43.4277 11.3901 43.3766L10.4386 42.8147C10.3614 42.7636 10.2842 42.7891 10.2328 42.8658C10.1814 42.9424 10.2071 43.019 10.2842 43.0701L11.2358 43.6321C11.2615 43.6576 11.2872 43.6576 11.3129 43.6576Z" fill="#0E0E0E"/>
<path d="M11.3129 44.1176C11.3644 44.1176 11.4158 44.092 11.4415 44.041C11.493 43.9643 11.4672 43.8877 11.3901 43.8366L10.4386 43.2746C10.3614 43.2235 10.2842 43.2491 10.2328 43.3257C10.1814 43.4023 10.2071 43.479 10.2842 43.5301L11.2358 44.092C11.2615 44.1176 11.2872 44.1176 11.3129 44.1176Z" fill="#0E0E0E"/>
<path d="M11.3135 44.1181C11.3393 44.1181 11.365 44.1181 11.3907 44.0926L13.6538 42.7898C13.731 42.7387 13.7567 42.6621 13.7052 42.5855C13.6538 42.5088 13.5767 42.4833 13.4995 42.5344L11.2364 43.8371C11.1592 43.8882 11.1335 43.9649 11.185 44.0415C11.2107 44.0926 11.2621 44.1181 11.3135 44.1181Z" fill="#0E0E0E"/>
<path d="M8.50977 42.483C8.58692 42.483 8.66407 42.4063 8.66407 42.3297V41.8955C8.66407 41.8188 8.58692 41.7422 8.50977 41.7422C8.43262 41.7422 8.35547 41.8188 8.35547 41.8955V42.3297C8.35547 42.4319 8.43262 42.483 8.50977 42.483Z" fill="#0E0E0E"/>
<path d="M9.46199 42.5853C9.4877 42.5853 9.51342 42.5853 9.53914 42.5598L11.3393 41.5125C11.4165 41.4614 11.4422 41.3848 11.3908 41.3081C11.3393 41.2315 11.2622 41.206 11.185 41.257L9.38483 42.3044C9.30768 42.3554 9.28197 42.4321 9.3334 42.5087C9.35912 42.5598 9.41055 42.5853 9.46199 42.5853Z" fill="#0E0E0E"/>
<path d="M8.50984 42.0228C8.53555 42.0228 8.56127 42.0228 8.58699 41.9973L10.3872 40.95C10.4643 40.8989 10.4901 40.8223 10.4386 40.7456C10.3872 40.669 10.31 40.6435 10.2329 40.6945L8.43269 41.7419C8.35553 41.7929 8.32982 41.8696 8.38125 41.9462C8.40697 41.9973 8.4584 42.0228 8.50984 42.0228Z" fill="#0E0E0E"/>
<path d="M9.46137 42.5854C9.5128 42.5854 9.56424 42.5598 9.58996 42.5087C9.64139 42.4321 9.61567 42.3555 9.53852 42.3044L8.58699 41.7424C8.50984 41.6913 8.43269 41.7169 8.38125 41.7935C8.32982 41.8701 8.35553 41.9468 8.43269 41.9978L9.38422 42.5598C9.40994 42.5598 9.43565 42.5854 9.46137 42.5854Z" fill="#0E0E0E"/>
<path d="M9.46137 43.0453C9.5128 43.0453 9.56424 43.0198 9.58996 42.9687C9.64139 42.8921 9.61567 42.8154 9.53852 42.7643L8.58699 42.2024C8.50984 42.1513 8.43269 42.1768 8.38125 42.2534C8.32982 42.3301 8.35553 42.4067 8.43269 42.4578L9.38422 43.0198C9.40994 43.0453 9.43565 43.0453 9.46137 43.0453Z" fill="#0E0E0E"/>
<path d="M9.46199 43.0447C9.4877 43.0447 9.51342 43.0447 9.53914 43.0192L11.7508 41.742C11.828 41.6909 11.8537 41.6143 11.8022 41.5376C11.7508 41.461 11.6737 41.4355 11.5965 41.4865L9.38483 42.7637C9.30768 42.8148 9.28197 42.8915 9.3334 42.9681C9.35912 43.0192 9.41055 43.0447 9.46199 43.0447Z" fill="#0E0E0E"/>
<path d="M6.65821 41.4615C6.73536 41.4615 6.81251 41.3849 6.81251 41.3082V40.874C6.81251 40.7973 6.73536 40.7207 6.65821 40.7207C6.58106 40.7207 6.50391 40.7973 6.50391 40.874V41.3082C6.50391 41.3849 6.58106 41.4615 6.65821 41.4615Z" fill="#0E0E0E"/>
<path d="M4.8584 40.363C4.93556 40.363 5.01271 40.2864 5.01271 40.2097V39.7499C5.01271 39.6733 4.93556 39.5967 4.8584 39.5967C4.78125 39.5967 4.7041 39.6733 4.7041 39.7499V40.2097C4.7041 40.2864 4.75554 40.363 4.8584 40.363Z" fill="#0E0E0E"/>
<path d="M7.61042 41.5376C7.63614 41.5376 7.66186 41.5376 7.68757 41.5121L9.53921 40.4392C9.61636 40.3882 9.64207 40.3115 9.59064 40.2349C9.53921 40.1583 9.46206 40.1327 9.3849 40.1838L7.53327 41.2567C7.45612 41.3077 7.4304 41.3844 7.48184 41.461C7.53327 41.5121 7.55899 41.5376 7.61042 41.5376Z" fill="#0E0E0E"/>
<path d="M6.65827 41.0014C6.68399 41.0014 6.70971 41.0014 6.73543 40.9758L8.56134 39.9285C8.63849 39.8774 8.66421 39.8008 8.61277 39.7242C8.56134 39.6475 8.48419 39.622 8.40704 39.6731L6.58112 40.7204C6.50397 40.7715 6.47825 40.8481 6.52969 40.9247C6.55541 40.9758 6.60684 41.0014 6.65827 41.0014Z" fill="#0E0E0E"/>
<path d="M7.60981 41.5375C7.66124 41.5375 7.71268 41.512 7.73839 41.4609C7.78983 41.3842 7.76411 41.3076 7.68696 41.2565L6.73543 40.6945C6.65827 40.6435 6.58112 40.669 6.52969 40.7456C6.47825 40.8223 6.50397 40.8989 6.58112 40.95L7.53266 41.512C7.55837 41.5375 7.58409 41.5375 7.60981 41.5375Z" fill="#0E0E0E"/>
<path d="M7.60981 41.9975C7.66124 41.9975 7.71268 41.9719 7.73839 41.9208C7.78983 41.8442 7.76411 41.7676 7.68696 41.7165L6.73543 41.1545C6.65827 41.1034 6.58112 41.129 6.52969 41.2056C6.47825 41.2822 6.50397 41.3589 6.58112 41.41L7.53266 41.9719C7.55837 41.9975 7.58409 41.9975 7.60981 41.9975Z" fill="#0E0E0E"/>
<path d="M7.61042 41.998C7.63614 41.998 7.66186 41.998 7.68757 41.9725L9.95068 40.6697C10.0278 40.6186 10.0535 40.542 10.0021 40.4654C9.95068 40.3887 9.87353 40.3632 9.79638 40.4143L7.53327 41.717C7.45612 41.7681 7.4304 41.8448 7.48184 41.9214C7.53327 41.9725 7.55899 41.998 7.61042 41.998Z" fill="#0E0E0E"/>
<path d="M5.80964 40.4397C5.83536 40.4397 5.86108 40.4397 5.88679 40.4141L7.66127 39.3924C7.73843 39.3413 7.76414 39.2647 7.71271 39.188C7.66127 39.1114 7.58412 39.0858 7.50697 39.1369L5.73249 40.1587C5.65534 40.2098 5.62962 40.2864 5.68106 40.3631C5.70677 40.4141 5.75821 40.4397 5.80964 40.4397Z" fill="#0E0E0E"/>
<path d="M4.85847 39.8772C4.88419 39.8772 4.9099 39.8772 4.93562 39.8516L6.7101 38.8299C6.78725 38.7788 6.81297 38.7022 6.76154 38.6255C6.7101 38.5489 6.63295 38.5233 6.5558 38.5744L4.78132 39.5962C4.70417 39.6473 4.67845 39.7239 4.72988 39.8006C4.7556 39.8516 4.80704 39.8772 4.85847 39.8772Z" fill="#0E0E0E"/>
<path d="M5.81 40.4398C5.86144 40.4398 5.91287 40.4143 5.93859 40.3632C5.99002 40.2866 5.96431 40.21 5.88715 40.1589L4.93562 39.5969C4.85847 39.5458 4.78132 39.5713 4.72988 39.648C4.67845 39.7246 4.70417 39.8012 4.78132 39.8523L5.73285 40.4143C5.75857 40.4398 5.78429 40.4398 5.81 40.4398Z" fill="#0E0E0E"/>
<path d="M5.81 40.8988C5.86144 40.8988 5.91287 40.8733 5.93859 40.8222C5.99002 40.7456 5.96431 40.6689 5.88715 40.6178L4.93562 40.0559C4.85847 40.0048 4.78132 40.0303 4.72988 40.107C4.67845 40.1836 4.70417 40.2602 4.78132 40.3113L5.73285 40.8733C5.75857 40.8988 5.78429 40.8988 5.81 40.8988Z" fill="#0E0E0E"/>
<path d="M5.80964 40.8991C5.83536 40.8991 5.86108 40.8991 5.88679 40.8735L8.07275 39.6219C8.1499 39.5708 8.17562 39.4941 8.12418 39.4175C8.07275 39.3409 7.9956 39.3153 7.91844 39.3664L5.73249 40.6181C5.65534 40.6692 5.62962 40.7458 5.68106 40.8224C5.70677 40.8735 5.75821 40.8991 5.80964 40.8991Z" fill="#0E0E0E"/>
<path d="M3.00684 39.239C3.08399 39.239 3.16114 39.1623 3.16114 39.0857V38.6259C3.16114 38.5493 3.08399 38.4727 3.00684 38.4727C2.92969 38.4727 2.85254 38.5493 2.85254 38.6259V39.0857C2.85254 39.1879 2.92969 39.239 3.00684 39.239Z" fill="#0E0E0E"/>
<path d="M3.95808 39.3155C3.9838 39.3155 4.00951 39.3155 4.03523 39.29L5.75828 38.2937C5.83543 38.2427 5.86115 38.166 5.80971 38.0894C5.75828 38.0128 5.68113 37.9872 5.60397 38.0383L3.88093 39.0345C3.80378 39.0856 3.77806 39.1622 3.82949 39.2389C3.85521 39.29 3.90664 39.3155 3.95808 39.3155Z" fill="#0E0E0E"/>
<path d="M3.00691 38.7792C3.03262 38.7792 3.05834 38.7792 3.08406 38.7537L4.78139 37.783C4.85854 37.7319 4.88426 37.6553 4.83282 37.5786C4.78139 37.502 4.70424 37.4765 4.62708 37.5276L2.92976 38.4982C2.8526 38.5493 2.82689 38.626 2.87832 38.7026C2.90404 38.7537 2.95547 38.7792 3.00691 38.7792Z" fill="#0E0E0E"/>
<path d="M3.95844 39.3158C4.00987 39.3158 4.06131 39.2903 4.08703 39.2392C4.13846 39.1626 4.11274 39.0859 4.03559 39.0348L3.08406 38.4729C3.00691 38.4218 2.92976 38.4473 2.87832 38.524C2.82689 38.6006 2.8526 38.6772 2.92976 38.7283L3.88129 39.2903C3.90701 39.3158 3.93272 39.3158 3.95844 39.3158Z" fill="#0E0E0E"/>
<path d="M3.95844 39.8012C4.00987 39.8012 4.06131 39.7756 4.08703 39.7245C4.13846 39.6479 4.11274 39.5713 4.03559 39.5202L3.08406 38.9582C3.00691 38.9071 2.92976 38.9327 2.87832 39.0093C2.82689 39.0859 2.8526 39.1626 2.92976 39.2137L3.88129 39.7756C3.90701 39.7756 3.93272 39.8012 3.95844 39.8012Z" fill="#0E0E0E"/>
<path d="M3.95808 39.8013C3.9838 39.8013 4.00951 39.8013 4.03523 39.7757L6.14403 38.5496C6.22118 38.4985 6.2469 38.4219 6.19547 38.3452C6.14403 38.2686 6.06688 38.2431 5.98973 38.2942L3.88093 39.5203C3.80378 39.5714 3.77806 39.648 3.82949 39.7246C3.85521 39.7757 3.90664 39.8013 3.95808 39.8013Z" fill="#0E0E0E"/>
<path d="M1.20606 38.2429C1.28321 38.2429 1.36036 38.1663 1.36036 38.0896V37.6298C1.36036 37.5532 1.28321 37.4766 1.20606 37.4766C1.12891 37.4766 1.05176 37.5532 1.05176 37.6298V38.0896C1.07747 38.1918 1.12891 38.2429 1.20606 38.2429Z" fill="#0E0E0E"/>
<path d="M0.820318 38.4726C0.89747 38.4726 0.974621 38.396 0.974621 38.3193V37.9872C0.974621 37.9106 0.89747 37.834 0.820318 37.834C0.743167 37.834 0.666016 37.9106 0.666016 37.9872V38.3193C0.666016 38.4215 0.743167 38.4726 0.820318 38.4726Z" fill="#0E0E0E"/>
<path d="M2.18366 38.3196C2.20938 38.3196 2.2351 38.3196 2.26082 38.294L4.00958 37.2723C4.08673 37.2212 4.11245 37.1445 4.06101 37.0679C4.00958 36.9913 3.93243 36.9657 3.85528 37.0168L2.10651 38.0386C2.02936 38.0897 2.00365 38.1663 2.05508 38.2429C2.0808 38.294 2.13223 38.3196 2.18366 38.3196Z" fill="#0E0E0E"/>
<path d="M1.20613 37.7825C1.23184 37.7825 1.25756 37.7825 1.28328 37.7569L3.03204 36.7351C3.10919 36.6841 3.13491 36.6074 3.08347 36.5308C3.03204 36.4542 2.95489 36.4286 2.87774 36.4797L1.12897 37.5015C1.05182 37.5526 1.02611 37.6292 1.07754 37.7058C1.10326 37.7569 1.15469 37.7825 1.20613 37.7825Z" fill="#0E0E0E"/>
<path d="M0.820384 38.0892C0.846101 38.0892 0.871818 38.0892 0.897535 38.0637L1.30901 37.8338C1.38616 37.7827 1.41188 37.7061 1.36044 37.6294C1.30901 37.5528 1.23186 37.5272 1.15471 37.5783L0.743232 37.8082C0.666081 37.8593 0.640364 37.936 0.691798 38.0126C0.717515 38.0637 0.76895 38.0892 0.820384 38.0892Z" fill="#0E0E0E"/>
<path d="M2.18403 38.3188C2.23546 38.3188 2.28689 38.2932 2.31261 38.2421C2.36405 38.1655 2.33833 38.0889 2.26118 38.0378L1.30964 37.4758C1.23249 37.4247 1.15534 37.4503 1.10391 37.5269C1.05247 37.6035 1.07819 37.6802 1.15534 37.7312L2.10687 38.2932C2.13259 38.3188 2.15831 38.3188 2.18403 38.3188Z" fill="#0E0E0E"/>
<path d="M2.18403 38.8041C2.23546 38.8041 2.28689 38.7786 2.31261 38.7275C2.36405 38.6508 2.33833 38.5742 2.26118 38.5231L1.30964 37.9611C1.23249 37.9101 1.15534 37.9356 1.10391 38.0122C1.05247 38.0889 1.07819 38.1655 1.15534 38.2166L2.10687 38.7786C2.13259 38.7786 2.15831 38.8041 2.18403 38.8041Z" fill="#0E0E0E"/>
<path d="M12.8566 45.4203C12.9081 45.4203 12.9595 45.3948 12.9852 45.3437C13.0367 45.267 13.0109 45.1904 12.9338 45.1393L0.923902 38.2424C0.846751 38.1913 0.7696 38.2169 0.718165 38.2935C0.666731 38.3701 0.692448 38.4468 0.7696 38.4978L12.7795 45.3948C12.8052 45.3948 12.8309 45.4203 12.8566 45.4203Z" fill="#0E0E0E"/>
<path d="M2.18367 38.8043C2.20938 38.8043 2.2351 38.8043 2.26082 38.7788L4.42105 37.5271C4.49821 37.476 4.52392 37.3994 4.47249 37.3228C4.42105 37.2462 4.3439 37.2206 4.26675 37.2717L2.10651 38.5234C2.02936 38.5745 2.00365 38.6511 2.05508 38.7277C2.0808 38.7788 2.13223 38.8043 2.18367 38.8043Z" fill="#0E0E0E"/>
<path d="M16.0704 26.7734C16.0961 26.7734 16.1218 26.7734 16.1475 26.7479L24.6856 21.8689C24.7628 21.8178 24.7885 21.7412 24.737 21.6646C24.6856 21.5879 24.6085 21.5624 24.5313 21.6135L15.9932 26.4924C15.9161 26.5435 15.8904 26.6201 15.9418 26.6968C15.9675 26.7479 16.0189 26.7734 16.0704 26.7734Z" fill="#0E0E0E"/>
<path d="M16.0704 18.6758C16.0961 18.6758 16.1218 18.6758 16.1475 18.6502L24.6856 13.7713C24.7628 13.7202 24.7885 13.6436 24.737 13.5669C24.6856 13.4903 24.6085 13.4647 24.5313 13.5158L15.9932 18.3948C15.9161 18.4459 15.8904 18.5225 15.9418 18.5991C15.9675 18.6502 16.0189 18.6758 16.0704 18.6758Z" fill="#0E0E0E"/>
<path d="M1.66902 10.4248C1.69473 10.4248 1.72045 10.4248 1.74617 10.3992L10.2842 5.5203C10.3614 5.46921 10.3871 5.39258 10.3357 5.31595C10.2842 5.23932 10.2071 5.21377 10.1299 5.26486L1.59187 10.1693C1.51471 10.2204 1.489 10.2971 1.54043 10.3737C1.56615 10.3992 1.61758 10.4248 1.66902 10.4248Z" fill="#0E0E0E"/>
<path d="M1.56641 19.2882C1.59213 19.2882 1.61784 19.2882 1.64356 19.2627L2.31221 18.9051C2.38936 18.854 2.41507 18.7773 2.36364 18.7007C2.31221 18.6241 2.23505 18.5985 2.1579 18.6496L1.48926 19.0328C1.43782 19.0583 1.41211 19.1605 1.43782 19.2116C1.46354 19.2627 1.51497 19.2882 1.56641 19.2882Z" fill="#0E0E0E"/>
<path d="M1.61824 27.9735C1.64395 27.9735 1.66967 27.9735 1.69539 27.9479L2.23545 27.6414C2.3126 27.5903 2.33831 27.5137 2.28688 27.437C2.23545 27.3604 2.15829 27.3349 2.08114 27.386L1.54108 27.6925C1.46393 27.7436 1.43822 27.8202 1.48965 27.8968C1.51537 27.9479 1.5668 27.9735 1.61824 27.9735Z" fill="#0E0E0E"/>
<path d="M24.6094 21.8689C24.6865 21.8689 24.7637 21.7922 24.7637 21.7156V13.6181C24.7637 13.5415 24.6865 13.4648 24.6094 13.4648C24.5322 13.4648 24.4551 13.5415 24.4551 13.6181V21.7156C24.4808 21.8178 24.5322 21.8689 24.6094 21.8689Z" fill="#0E0E0E"/>
<path d="M16.0713 26.7732C16.1484 26.7732 16.2256 26.6965 16.2256 26.6199V18.5224C16.2256 18.4458 16.1484 18.3691 16.0713 18.3691C15.9941 18.3691 15.917 18.4458 15.917 18.5224V26.6199C15.917 26.6965 15.9941 26.7732 16.0713 26.7732Z" fill="#0E0E0E"/>
<path d="M1.5918 18.5226C1.66895 18.5226 1.74611 18.4459 1.74611 18.3693V10.374C1.74611 10.2973 1.66895 10.2207 1.5918 10.2207C1.51465 10.2207 1.4375 10.2973 1.4375 10.374V18.3693C1.4375 18.4715 1.51465 18.5226 1.5918 18.5226Z" fill="#0E0E0E"/>
<path d="M24.6093 13.7709C24.6608 13.7709 24.7122 13.7454 24.7379 13.6943C24.7894 13.6176 24.7636 13.541 24.6865 13.4899L10.3106 5.29025C10.2335 5.23916 10.1563 5.26471 10.1049 5.34134C10.0534 5.41797 10.0792 5.4946 10.1563 5.54569L24.5322 13.7709C24.5579 13.7709 24.5836 13.7709 24.6093 13.7709Z" fill="#0E0E0E"/>
<path d="M15.9941 18.6752C16.0455 18.6752 16.097 18.6497 16.1227 18.5986C16.1741 18.5219 16.1484 18.4453 16.0713 18.3942L1.69539 10.1945C1.61824 10.1435 1.54108 10.169 1.48965 10.2456C1.43822 10.3223 1.46393 10.3989 1.54108 10.45L15.9427 18.6497C15.9684 18.6752 15.9684 18.6752 15.9941 18.6752Z" fill="#0E0E0E"/>
<path d="M15.9941 26.7475C16.0455 26.7475 16.097 26.7219 16.1227 26.6708C16.1741 26.5942 16.1484 26.5176 16.0713 26.4665L1.69539 18.2668C1.61824 18.2157 1.54108 18.2413 1.48965 18.3179C1.43822 18.3945 1.46393 18.4712 1.54108 18.5223L15.917 26.7475C15.9684 26.7475 15.9684 26.7475 15.9941 26.7475Z" fill="#0E0E0E"/>
<path d="M20.2887 16.1974C20.3401 16.1974 20.3916 16.1718 20.4173 16.1207C20.4687 16.0441 20.443 15.9675 20.3658 15.9164L6.09285 7.76779C6.0157 7.7167 5.93854 7.74225 5.88711 7.81888C5.83568 7.89551 5.86139 7.97214 5.93855 8.02323L20.2115 16.1718C20.2373 16.1974 20.263 16.1974 20.2887 16.1974Z" fill="#0E0E0E"/>
<path d="M10.6963 5.69961C10.7734 5.69961 10.8506 5.62298 10.8506 5.54635V5.13764C10.8506 5.06101 10.7734 4.98438 10.6963 4.98438C10.6191 4.98438 10.542 5.06101 10.542 5.13764V5.54635C10.542 5.62298 10.6191 5.69961 10.6963 5.69961Z" fill="#0E0E0E"/>
<path d="M25.1746 21.5107C25.2003 21.5107 25.226 21.5107 25.2517 21.4852L33.7898 16.6062C33.8669 16.5552 33.8927 16.4785 33.8412 16.4019C33.7898 16.3253 33.7126 16.2997 33.6355 16.3508L25.1231 21.2553C25.046 21.3064 25.0202 21.383 25.0717 21.4596C25.0974 21.4852 25.1231 21.5107 25.1746 21.5107Z" fill="#0E0E0E"/>
<path d="M25.1746 13.414C25.2003 13.414 25.226 13.414 25.2517 13.3885L33.7898 8.50956C33.8669 8.45847 33.8927 8.38184 33.8412 8.30521C33.7898 8.22857 33.7126 8.20303 33.6355 8.25412L25.1231 13.1586C25.046 13.2097 25.0202 13.2863 25.0717 13.363C25.0974 13.3885 25.1231 13.414 25.1746 13.414Z" fill="#0E0E0E"/>
<path d="M10.7725 5.18845C10.7982 5.18845 10.824 5.18845 10.8497 5.16291L19.3878 0.283974C19.4649 0.232886 19.4906 0.156253 19.4392 0.0796206C19.3878 0.00298813 19.3106 -0.022556 19.2335 0.0285323L10.6954 4.90747C10.6182 4.95856 10.5925 5.03519 10.6439 5.11182C10.6697 5.16291 10.7211 5.18845 10.7725 5.18845Z" fill="#0E0E0E"/>
<path d="M33.7383 16.6325C33.8154 16.6325 33.8926 16.5559 33.8926 16.4793V8.38178C33.8926 8.30515 33.8154 8.22852 33.7383 8.22852C33.6611 8.22852 33.584 8.30515 33.584 8.38178V16.4793C33.584 16.5559 33.6354 16.6325 33.7383 16.6325Z" fill="#0E0E0E"/>
<path d="M25.1748 21.5114C25.252 21.5114 25.3291 21.4348 25.3291 21.3582V13.2607C25.3291 13.1841 25.252 13.1074 25.1748 13.1074C25.0977 13.1074 25.0205 13.1841 25.0205 13.2607V21.3582C25.0462 21.4604 25.0977 21.5114 25.1748 21.5114Z" fill="#0E0E0E"/>
<path d="M33.7382 8.53458C33.7897 8.53458 33.8411 8.50904 33.8668 8.45795C33.9183 8.38132 33.8925 8.30469 33.8154 8.2536L19.4395 0.0539229C19.3624 0.0028346 19.2852 0.0283788 19.2338 0.105011C19.1824 0.1561 19.2081 0.258276 19.2852 0.28382L33.6611 8.50904C33.6868 8.53458 33.7125 8.53458 33.7382 8.53458Z" fill="#0E0E0E"/>
<path d="M25.123 13.4389C25.1744 13.4389 25.2259 13.4133 25.2516 13.3622C25.303 13.2856 25.2773 13.209 25.2002 13.1579L10.8243 4.95822C10.7471 4.90713 10.67 4.93268 10.6186 5.00931C10.5671 5.08594 10.5928 5.16257 10.67 5.21366L25.0459 13.4389C25.0716 13.4389 25.0973 13.4389 25.123 13.4389Z" fill="#0E0E0E"/>
<path d="M29.3916 10.9612C29.443 10.9612 29.4944 10.9356 29.5201 10.8846C29.5716 10.8079 29.5459 10.7313 29.4687 10.6802L15.17 2.50607C15.0928 2.45498 15.0157 2.48053 14.9643 2.55716C14.9128 2.63379 14.9385 2.71042 15.0157 2.76151L29.3144 10.9356C29.3401 10.9356 29.3658 10.9612 29.3916 10.9612Z" fill="#0E0E0E"/>
<path d="M25.1747 21.5114C25.2261 21.5114 25.2776 21.4858 25.3033 21.4347C25.329 21.3581 25.3033 21.2815 25.2261 21.2304L24.8404 21.0516C24.7632 21.026 24.6861 21.0516 24.6346 21.1282C24.6089 21.2048 24.6346 21.2815 24.7118 21.3326L25.1233 21.5369C25.149 21.5114 25.1747 21.5114 25.1747 21.5114Z" fill="#0E0E0E"/>
<path d="M16.0968 44.2197C16.1225 44.2197 16.1482 44.2197 16.1739 44.1942L24.712 39.3152C24.7891 39.2641 24.8149 39.1875 24.7634 39.1109C24.712 39.0342 24.6348 39.0087 24.5577 39.0598L16.0196 43.9387C15.9424 43.9898 15.9167 44.0664 15.9682 44.1431C15.9939 44.1942 16.0453 44.2197 16.0968 44.2197Z" fill="#0E0E0E"/>
<path d="M16.0968 36.122C16.1225 36.122 16.1482 36.122 16.1739 36.0965L24.712 31.2176C24.7891 31.1665 24.8149 31.0898 24.7634 31.0132C24.712 30.9366 24.6348 30.911 24.5577 30.9621L16.0196 35.8411C15.9424 35.8922 15.9167 35.9688 15.9682 36.0454C15.9939 36.0965 16.0453 36.122 16.0968 36.122Z" fill="#0E0E0E"/>
<path d="M24.6348 39.3406C24.7119 39.3406 24.7891 39.2639 24.7891 39.1873V31.0898C24.7891 31.0132 24.7119 30.9365 24.6348 30.9365C24.5576 30.9365 24.4805 31.0132 24.4805 31.0898V39.1873C24.5062 39.2639 24.5576 39.3406 24.6348 39.3406Z" fill="#0E0E0E"/>
<path d="M16.0967 44.2195C16.1738 44.2195 16.251 44.1428 16.251 44.0662V35.9687C16.251 35.8921 16.1738 35.8154 16.0967 35.8154C16.0195 35.8154 15.9424 35.8921 15.9424 35.9687V44.0662C15.9681 44.1684 16.0195 44.2195 16.0967 44.2195Z" fill="#0E0E0E"/>
<path d="M1.61817 35.9687C1.69532 35.9687 1.77247 35.8921 1.77247 35.8154V27.8456C1.77247 27.769 1.69532 27.6924 1.61817 27.6924C1.54102 27.6924 1.46387 27.769 1.46387 27.8456V35.8154C1.46387 35.8921 1.54102 35.9687 1.61817 35.9687Z" fill="#0E0E0E"/>
<path d="M24.6345 31.243C24.686 31.243 24.7374 31.2175 24.7631 31.1664C24.8146 31.0897 24.7888 31.0131 24.7117 30.962L24.1973 30.6555C24.1202 30.6044 24.043 30.6299 23.9916 30.7066C23.9402 30.7832 23.9659 30.8598 24.043 30.9109L24.5574 31.2175C24.6088 31.243 24.6345 31.243 24.6345 31.243Z" fill="#0E0E0E"/>
<path d="M16.0459 36.1479C16.0973 36.1479 16.1487 36.1223 16.1744 36.0712C16.2259 35.9946 16.2002 35.918 16.123 35.8669L1.74714 27.6672C1.66999 27.6161 1.59284 27.6417 1.54141 27.7183C1.48997 27.7949 1.51569 27.8716 1.59284 27.9226L15.9687 36.1479C15.9944 36.1479 16.0201 36.1479 16.0459 36.1479Z" fill="#0E0E0E"/>
<path d="M16.0459 44.2203C16.0973 44.2203 16.1487 44.1947 16.1744 44.1437C16.2259 44.067 16.2002 43.9904 16.123 43.9393L1.74714 35.7141C1.66999 35.663 1.59284 35.6885 1.54141 35.7652C1.48997 35.8418 1.51569 35.9184 1.59284 35.9695L15.9687 44.1947C15.9944 44.1947 16.0201 44.2203 16.0459 44.2203Z" fill="#0E0E0E"/>
<path d="M20.3145 33.6696C20.366 33.6696 20.4174 33.6441 20.4431 33.593C20.4946 33.5163 20.4688 33.4397 20.3917 33.3886L19.9288 33.1076C19.8516 33.0565 19.7745 33.0821 19.723 33.1587C19.6716 33.2354 19.6973 33.312 19.7745 33.3631L20.2374 33.6441C20.2631 33.6441 20.2888 33.6696 20.3145 33.6696Z" fill="#0E0E0E"/>
<path d="M25.406 38.9834C25.4317 38.9834 25.4574 38.9834 25.4831 38.9578L34.0212 34.0789C34.0984 34.0278 34.1241 33.9512 34.0727 33.8745C34.0212 33.7979 33.9441 33.7724 33.8669 33.8235L25.3546 38.7024C25.2774 38.7535 25.2517 38.8301 25.3031 38.9067C25.3288 38.9578 25.3546 38.9834 25.406 38.9834Z" fill="#0E0E0E"/>
<path d="M25.406 30.8857C25.4317 30.8857 25.4574 30.8857 25.4831 30.8602L34.0212 25.9812C34.0984 25.9302 34.1241 25.8535 34.0727 25.7769C34.0212 25.7003 33.9441 25.6747 33.8669 25.7258L25.3546 30.6047C25.2774 30.6558 25.2517 30.7325 25.3031 30.8091C25.3288 30.8602 25.3546 30.8857 25.406 30.8857Z" fill="#0E0E0E"/>
<path d="M33.9697 34.0788C34.0469 34.0788 34.124 34.0022 34.124 33.9256V25.8281C34.124 25.7514 34.0469 25.6748 33.9697 25.6748C33.8926 25.6748 33.8154 25.7514 33.8154 25.8281V33.9256C33.8154 34.0277 33.8926 34.0788 33.9697 34.0788Z" fill="#0E0E0E"/>
<path d="M25.4063 38.9831C25.4834 38.9831 25.5606 38.9065 25.5606 38.8299V30.7324C25.5606 30.6557 25.4834 30.5791 25.4063 30.5791C25.3291 30.5791 25.252 30.6557 25.252 30.7324V38.8299C25.2777 38.9065 25.3291 38.9831 25.4063 38.9831Z" fill="#0E0E0E"/>
<path d="M33.9698 25.9811C34.0212 25.9811 34.0727 25.9556 34.0984 25.9045C34.1498 25.8279 34.1241 25.7512 34.047 25.7001L33.5841 25.4192C33.5069 25.3681 33.4298 25.3936 33.3783 25.4702C33.3269 25.5469 33.3526 25.6235 33.4298 25.6746L33.8927 25.9556C33.9184 25.9811 33.9441 25.9811 33.9698 25.9811Z" fill="#0E0E0E"/>
<path d="M25.3549 30.8852C25.4064 30.8852 25.4578 30.8597 25.4835 30.8086C25.5349 30.732 25.5092 30.6553 25.4321 30.6042L24.712 30.1955C24.6348 30.1444 24.5577 30.17 24.5063 30.2466C24.4548 30.3232 24.4805 30.3999 24.5577 30.451L25.2778 30.8597C25.3035 30.8852 25.3292 30.8852 25.3549 30.8852Z" fill="#0E0E0E"/>
<path d="M29.6241 28.408C29.6755 28.408 29.727 28.3825 29.7527 28.3314C29.8041 28.2548 29.7784 28.1781 29.7013 28.1271L29.1612 27.8205C29.0841 27.7694 29.0069 27.795 28.9555 27.8716C28.904 27.9482 28.9298 28.0249 29.0069 28.076L29.547 28.3825C29.5727 28.408 29.5984 28.408 29.6241 28.408Z" fill="#0E0E0E"/>
<path d="M25.4065 38.9831C25.4579 38.9831 25.5094 38.9576 25.5351 38.9065C25.5608 38.8299 25.5351 38.7532 25.4579 38.7022L24.7378 38.3445C24.6607 38.319 24.5835 38.3445 24.5321 38.4212C24.5064 38.4978 24.5321 38.5744 24.6093 38.6255L25.3293 38.9831C25.3808 38.9576 25.4065 38.9831 25.4065 38.9831Z" fill="#0E0E0E"/>
<path d="M33.8419 17.1688C33.8933 17.1688 33.9448 17.1432 33.9705 17.0922C34.0219 17.0155 33.9962 16.9389 33.919 16.8878L33.379 16.5813C33.3018 16.5302 33.2247 16.5557 33.1732 16.6324C33.1218 16.709 33.1475 16.7856 33.2247 16.8367L33.7647 17.1432C33.7905 17.1688 33.8162 17.1688 33.8419 17.1688Z" fill="#0E0E0E"/>
<path d="M24.6085 22.5841C24.6599 22.5841 24.7114 22.5586 24.7371 22.5075C24.7885 22.4309 24.7628 22.3542 24.6856 22.3031L24.0684 21.9455C23.9913 21.8944 23.9141 21.92 23.8627 21.9966C23.8113 22.0732 23.837 22.1499 23.9141 22.201L24.5313 22.5586C24.5571 22.5586 24.5828 22.5841 24.6085 22.5841Z" fill="#0E0E0E"/>
<path d="M16.0704 35.5605C16.0961 35.5605 16.1218 35.5605 16.1475 35.535L24.6856 30.656C24.7628 30.605 24.7885 30.5283 24.737 30.4517C24.6856 30.3751 24.6085 30.3495 24.5313 30.4006L15.9932 35.2795C15.9161 35.3306 15.8904 35.4073 15.9418 35.4839C15.9675 35.535 16.0189 35.5605 16.0704 35.5605Z" fill="#0E0E0E"/>
<path d="M16.0704 27.4629C16.0961 27.4629 16.1218 27.4629 16.1475 27.4373L24.6856 22.5584C24.7628 22.5073 24.7885 22.4307 24.737 22.354C24.6856 22.2774 24.6085 22.2519 24.5313 22.3029L15.9932 27.1819C15.9161 27.233 15.8904 27.3096 15.9418 27.3862C15.9675 27.4373 16.0189 27.4629 16.0704 27.4629Z" fill="#0E0E0E"/>
<path d="M24.6084 30.656C24.6856 30.656 24.7627 30.5794 24.7627 30.5027V22.4052C24.7627 22.3286 24.6856 22.252 24.6084 22.252C24.5313 22.252 24.4541 22.3286 24.4541 22.4052V30.5027C24.4798 30.6049 24.5313 30.656 24.6084 30.656Z" fill="#0E0E0E"/>
<path d="M16.0703 35.5613C16.1475 35.5613 16.2246 35.4846 16.2246 35.408V27.3105C16.2246 27.2339 16.1475 27.1572 16.0703 27.1572C15.9932 27.1572 15.916 27.2339 15.916 27.3105V35.408C15.9417 35.4846 15.9932 35.5613 16.0703 35.5613Z" fill="#0E0E0E"/>
<path d="M1.5918 27.2841C1.66895 27.2841 1.74611 27.2075 1.74611 27.1309V19.1611C1.74611 19.0844 1.66895 19.0078 1.5918 19.0078C1.51465 19.0078 1.4375 19.0844 1.4375 19.1611V27.1564C1.4375 27.233 1.51465 27.2841 1.5918 27.2841Z" fill="#0E0E0E"/>
<path d="M16.0195 27.4633C16.0709 27.4633 16.1224 27.4377 16.1481 27.3867C16.1995 27.31 16.1738 27.2334 16.0966 27.1823L1.72078 18.9826C1.64363 18.9315 1.56647 18.9571 1.51504 19.0337C1.46361 19.1104 1.48932 19.187 1.56647 19.2381L15.9423 27.4633C15.9681 27.4633 15.9938 27.4633 16.0195 27.4633Z" fill="#0E0E0E"/>
<path d="M16.0195 35.5611C16.0709 35.5611 16.1224 35.5356 16.1481 35.4845C16.1995 35.4078 16.1738 35.3312 16.0966 35.2801L1.72078 27.0549C1.64363 27.0038 1.56647 27.0294 1.51504 27.106C1.46361 27.1826 1.48932 27.2593 1.56647 27.3103L15.9423 35.5356C15.9938 35.5356 16.0195 35.5611 16.0195 35.5611Z" fill="#0E0E0E"/>
<path d="M20.3399 24.8579C20.3914 24.8579 20.4428 24.8324 20.4685 24.7813C20.52 24.7047 20.4942 24.628 20.4171 24.5769L19.9542 24.3215C19.877 24.2704 19.7999 24.296 19.7484 24.3726C19.697 24.4492 19.7227 24.5259 19.7999 24.5769L20.2628 24.8324C20.2885 24.8579 20.3142 24.8579 20.3399 24.8579Z" fill="#0E0E0E"/>
<path d="M25.3292 30.247C25.3549 30.247 25.3806 30.247 25.4063 30.2215L33.9444 25.3426C34.0216 25.2915 34.0473 25.2148 33.9958 25.1382C33.9444 25.0616 33.8673 25.036 33.7901 25.0871L25.252 29.9661C25.1749 30.0172 25.1492 30.0938 25.2006 30.1704C25.2263 30.2215 25.2777 30.247 25.3292 30.247Z" fill="#0E0E0E"/>
<path d="M25.3292 22.1494C25.3549 22.1494 25.3806 22.1494 25.4063 22.1238L33.9444 17.2449C34.0216 17.1938 34.0473 17.1172 33.9958 17.0406C33.9444 16.9639 33.8673 16.9384 33.7901 16.9895L25.252 21.8939C25.1749 21.945 25.1492 22.0217 25.2006 22.0983C25.2263 22.1238 25.2777 22.1494 25.3292 22.1494Z" fill="#0E0E0E"/>
<path d="M33.8672 25.3679C33.9443 25.3679 34.0215 25.2913 34.0215 25.2146V17.1171C34.0215 17.0405 33.9443 16.9639 33.8672 16.9639C33.79 16.9639 33.7129 17.0405 33.7129 17.1171V25.2146C33.7129 25.2913 33.79 25.3679 33.8672 25.3679Z" fill="#0E0E0E"/>
<path d="M25.3291 30.2466C25.4063 30.2466 25.4834 30.17 25.4834 30.0934V22.0214C25.4834 21.9448 25.4063 21.8682 25.3291 21.8682C25.252 21.8682 25.1748 21.9448 25.1748 22.0214V30.1189C25.1748 30.1956 25.252 30.2466 25.3291 30.2466Z" fill="#0E0E0E"/>
<path d="M25.2525 22.1748C25.3039 22.1748 25.3554 22.1492 25.3811 22.0981C25.4068 22.0215 25.3811 21.9449 25.3039 21.8938L24.7896 21.6639C24.7124 21.6383 24.6353 21.6639 24.5839 21.7405C24.5581 21.8171 24.5839 21.8938 24.661 21.9449L25.1754 22.1748C25.2268 22.1748 25.2268 22.1748 25.2525 22.1748Z" fill="#0E0E0E"/>
<path d="M29.5466 19.6973C29.5981 19.6973 29.6495 19.6717 29.6752 19.6206C29.7267 19.544 29.7009 19.4674 29.6238 19.4163L29.0323 19.0842C28.9552 19.0331 28.878 19.0587 28.8266 19.1353C28.7751 19.2119 28.8008 19.2885 28.878 19.3396L29.4695 19.6717C29.4952 19.6717 29.5209 19.6973 29.5466 19.6973Z" fill="#0E0E0E"/>
<path d="M25.3292 30.2473C25.3806 30.2473 25.4063 30.2218 25.4578 30.1962C25.5092 30.1196 25.4835 30.0429 25.432 29.9919L24.7377 29.481C24.6605 29.4299 24.5834 29.4554 24.5319 29.5065C24.4805 29.5831 24.5062 29.6598 24.5577 29.7109L25.252 30.2218C25.2777 30.2473 25.3035 30.2473 25.3292 30.2473Z" fill="#0E0E0E"/>
<path d="M13.2158 47.2599C13.293 47.2599 13.3701 47.1832 13.3701 47.1066V46.749C13.3701 46.6723 13.293 46.5957 13.2158 46.5957C13.1387 46.5957 13.0615 46.6723 13.0615 46.749V47.1321C13.0615 47.2088 13.1387 47.2599 13.2158 47.2599Z" fill="#0E0E0E"/>
<path d="M13.4736 46.4172C13.5508 46.4172 13.6279 46.3406 13.6279 46.2639V44.9101C13.6279 44.8335 13.5508 44.7568 13.4736 44.7568C13.3965 44.7568 13.3193 44.8335 13.3193 44.9101V46.2639C13.3193 46.3406 13.3708 46.4172 13.4736 46.4172Z" fill="#0E0E0E"/>
<path d="M0.820384 40.0055C0.846101 40.0055 0.871818 40.0055 0.897535 39.98L1.38616 39.699C1.46331 39.6479 1.48903 39.5713 1.43759 39.4947C1.38616 39.418 1.30901 39.3925 1.23186 39.4436L0.743232 39.7246C0.666081 39.7756 0.640364 39.8523 0.691798 39.9289C0.717515 39.98 0.76895 40.0055 0.820384 40.0055Z" fill="#0E0E0E"/>
<path d="M2.49225 40.8734C2.54369 40.8734 2.59512 40.8478 2.62084 40.7967C2.64656 40.7201 2.62084 40.6435 2.56941 40.5924L0.872076 39.7239C0.794925 39.6983 0.717773 39.7239 0.666339 39.775C0.640622 39.8516 0.666339 39.9282 0.717773 39.9793L2.4151 40.8478C2.46654 40.8734 2.49225 40.8734 2.49225 40.8734Z" fill="#0E0E0E"/>
<path d="M0.820318 40.4646C0.89747 40.4646 0.974621 40.3879 0.974621 40.3113V39.8515C0.974621 39.7749 0.89747 39.6982 0.820318 39.6982C0.743167 39.6982 0.666016 39.7749 0.666016 39.8515V40.3113C0.666016 40.3879 0.743167 40.4646 0.820318 40.4646Z" fill="#0E0E0E"/>
<path d="M2.49225 41.3333C2.54369 41.3333 2.59512 41.3078 2.62084 41.2567C2.64656 41.1801 2.62084 41.1034 2.56941 41.0523L0.872076 40.1838C0.794925 40.1583 0.717773 40.1838 0.666339 40.2349C0.640622 40.3116 0.666339 40.3882 0.717773 40.4393L2.4151 41.3078C2.46654 41.3333 2.49225 41.3333 2.49225 41.3333Z" fill="#0E0E0E"/>
<path d="M2.77534 40.4393C2.82678 40.4393 2.87821 40.4138 2.90393 40.3627C2.92964 40.2861 2.90393 40.2094 2.82678 40.1584L1.05229 39.2899C0.975144 39.2643 0.897992 39.2899 0.846558 39.3665C0.820841 39.4431 0.846558 39.5197 0.923709 39.5708L2.69819 40.4393C2.74962 40.4393 2.77534 40.4393 2.77534 40.4393Z" fill="#0E0E0E"/>
<path d="M2.77514 40.4389C2.80085 40.4389 2.82657 40.4389 2.85229 40.4134L3.54665 40.0047C3.6238 39.9536 3.64952 39.877 3.59808 39.8003C3.54665 39.7237 3.4695 39.6981 3.39235 39.7492L2.7237 40.1579C2.64655 40.209 2.62083 40.2857 2.67227 40.3623C2.69798 40.4134 2.74942 40.4389 2.77514 40.4389Z" fill="#0E0E0E"/>
<path d="M1.00098 39.571C1.07813 39.571 1.15529 39.4944 1.15529 39.4177V38.4726C1.15529 38.396 1.07813 38.3193 1.00098 38.3193C0.923831 38.3193 0.84668 38.396 0.84668 38.4726V39.4177C0.872397 39.4944 0.923831 39.571 1.00098 39.571Z" fill="#0E0E0E"/>
<path d="M2.49226 41.3336C2.51798 41.3336 2.54369 41.3336 2.56941 41.3081L4.18959 40.3885C4.26674 40.3374 4.29246 40.2607 4.24102 40.1841C4.18959 40.1075 4.11244 40.0819 4.03529 40.133L2.41511 41.0526C2.33796 41.1037 2.31224 41.1803 2.36367 41.257C2.41511 41.3081 2.46654 41.3336 2.49226 41.3336Z" fill="#0E0E0E"/>
<path d="M2.5948 40.8741C2.62051 40.8741 2.64623 40.8741 2.67195 40.8485L3.82922 40.1844C3.90637 40.1333 3.93209 40.0566 3.88065 39.98C3.82922 39.9034 3.75207 39.8778 3.67492 39.9289L2.51765 40.5931C2.4405 40.6442 2.41478 40.7208 2.46621 40.7974C2.49193 40.8485 2.54336 40.8741 2.5948 40.8741Z" fill="#0E0E0E"/>
<path d="M2.54395 41.2825C2.6211 41.2825 2.69825 41.2058 2.69825 41.1292V40.746C2.69825 40.6694 2.6211 40.5928 2.54395 40.5928C2.4668 40.5928 2.38965 40.6694 2.38965 40.746V41.1292C2.38965 41.2058 2.4668 41.2825 2.54395 41.2825Z" fill="#0E0E0E"/>
<path d="M2.80079 40.4391C2.87794 40.4391 2.95509 40.3624 2.95509 40.2858V39.5195C2.95509 39.4428 2.87794 39.3662 2.80079 39.3662C2.72364 39.3662 2.64648 39.4428 2.64648 39.5195V40.2858C2.64648 40.3624 2.72364 40.4391 2.80079 40.4391Z" fill="#0E0E0E"/>
<path d="M25.8945 28.0756L28.5691 26.543V27.6414L25.8945 29.174V28.0756ZM28.2605 27.0794L26.2289 28.2544V28.612L28.2605 27.437V27.0794Z" fill="#0E0E0E"/>
<path d="M25.8945 19.1869L28.5691 17.6543V18.7527L25.8945 20.2853V19.1869ZM28.2605 18.1907L26.2289 19.3658V19.7234L28.2605 18.5483V18.1907Z" fill="#0E0E0E"/>
<path d="M25.8945 36.9399L28.5691 35.4072V36.5056L25.8945 38.0383V36.9399ZM28.2605 35.9692L26.2289 37.1442V37.5018L28.2605 36.3268V35.9692Z" fill="#0E0E0E"/>
<path d="M16.7139 33.3637L19.3884 31.8311V32.9295L16.7139 34.4621V33.3637ZM19.0541 32.3675L17.0225 33.5425V33.9001L19.0541 32.7251V32.3675Z" fill="#0E0E0E"/>
<path d="M16.7139 24.3979L19.3884 22.8652V23.9636L16.7139 25.4963V24.3979ZM19.0541 23.4017L17.0225 24.5767V24.9343L19.0541 23.7593V23.4017Z" fill="#0E0E0E"/>
<path d="M16.7139 42.228L19.3884 40.6953V41.7937L16.7139 43.3264V42.228ZM19.0541 41.2573L17.0225 42.4323V42.7899L19.0541 41.6149V41.2573Z" fill="#0E0E0E"/>
</g>
<defs>
<clipPath id="clip0_402_5128">
<rect width="34.6667" height="47.3333" fill="white" transform="translate(0.666016 0.00292969)"/>
</clipPath>
</defs>
</svg>
