<svg width="60" height="60" viewBox="0 0 60 60" fill="none" xmlns="http://www.w3.org/2000/svg">
<rect width="60" height="60" fill="white"/>
<path d="M25.4679 12.0655C25.4277 12.0655 25.3876 12.0655 25.3876 12.025C25.2673 11.9844 25.2271 11.8223 25.3074 11.7412C25.3475 11.6196 25.508 11.579 25.5882 11.6601C25.7086 11.7006 25.7487 11.8628 25.6685 11.9439C25.6284 11.9844 25.5481 12.0655 25.4679 12.0655Z" fill="black"/>
<path d="M50.2237 40.4845C50.1033 40.4845 50.023 40.4034 50.023 40.2818V26.1737L49.9428 26.1331C49.8224 26.0926 49.7823 25.9304 49.8626 25.8493C49.9027 25.7277 50.0632 25.6872 50.1434 25.7683L50.344 25.8899C50.4243 25.9304 50.4644 26.0115 50.4644 26.0926V40.2818C50.4644 40.3629 50.344 40.4845 50.2237 40.4845Z" fill="black"/>
<path d="M25.3073 12.1061C25.1869 12.1061 25.1067 12.025 25.1067 11.9034C25.1067 11.7818 25.1869 11.7007 25.3073 11.7007C25.4277 11.7007 25.5079 11.7818 25.5079 11.9034C25.548 12.025 25.4277 12.1061 25.3073 12.1061Z" fill="black"/>
<path d="M10.8632 20.3358V34.5655C10.8632 34.6466 10.783 34.7682 10.7027 34.7682C10.7027 34.7682 10.6626 34.7682 10.6225 34.7682C10.5021 34.7682 10.4219 34.6871 10.4219 34.5655V20.3358V20.2952C10.4219 20.2547 10.4219 20.2547 10.462 20.2141C10.462 20.2141 10.462 20.1736 10.5021 20.1736L10.5422 20.1331H10.5824H10.6225H10.6626H10.7027C10.7429 20.1331 10.7429 20.1331 10.783 20.1736C10.8231 20.1736 10.8632 20.2547 10.8632 20.3358Z" fill="black"/>
<path d="M25.5882 12.025C25.508 12.025 25.4277 11.9845 25.3876 11.9034C25.3475 11.7818 25.3876 11.6602 25.508 11.6196C25.5882 11.5386 25.7487 11.5791 25.7888 11.6602C25.8691 11.7413 25.829 11.9034 25.7086 11.9845C25.7086 11.9845 25.6685 11.9845 25.6685 12.025C25.6685 11.9845 25.6283 12.025 25.5882 12.025Z" fill="black"/>
<path d="M18.3259 16.16C18.2056 16.16 18.0852 16.079 18.0852 15.9573C18.0852 15.8357 18.1655 15.7546 18.2858 15.7546C18.4062 15.7546 18.5266 15.8357 18.5266 15.9573C18.5266 16.079 18.4463 16.16 18.3259 16.16Z" fill="black"/>
<path d="M50.2235 26.2547C50.1834 26.2547 50.1433 26.2547 50.1032 26.2141L44.165 22.7682L38.7885 19.6465C38.7885 19.6465 38.7885 19.6465 38.7484 19.6465L37.625 18.9979L25.5882 12.0249L25.4277 12.106C25.3073 12.1465 25.1869 12.1465 25.1468 12.0249C25.1067 11.9033 25.1067 11.7817 25.227 11.7411L25.4678 11.6195C25.548 11.579 25.6283 11.579 25.7085 11.6195L38.9892 19.3222L39.0694 19.3628L44.3656 22.4438C44.3656 22.4438 44.4057 22.4438 44.4057 22.4844L50.3439 25.9303C50.4643 25.9709 50.5044 26.133 50.4242 26.2141C50.384 26.2141 50.3038 26.2547 50.2235 26.2547Z" fill="black"/>
<path d="M18.2859 16.1602C18.2056 16.1602 18.1254 16.1196 18.0853 16.0385C18.0452 15.9169 18.0452 15.7953 18.1655 15.7548L18.3661 15.6331C18.4865 15.5926 18.6069 15.5926 18.647 15.7142C18.6871 15.8358 18.6871 15.9575 18.5668 15.998L18.3661 16.1196C18.3661 16.1602 18.326 16.1602 18.2859 16.1602Z" fill="black"/>
<path d="M50.4643 26.0925C50.4643 26.1736 50.4242 26.2546 50.344 26.2952L50.2236 26.3763L50.023 26.4979L44.8873 29.4979C44.8873 29.4979 44.8873 29.4979 44.8471 29.4979L43.8842 30.0654L43.4428 30.3087L43.2422 30.4303L43.0015 30.5519L41.9583 31.16L41.517 31.4033L41.2762 31.5654L40.8349 31.8087L35.7393 34.7682H35.6992L35.5788 34.8492H35.5387C35.4985 34.8898 35.4584 34.8898 35.4183 34.8898C35.3782 34.8898 35.338 34.8898 35.2979 34.8492L35.2177 34.8087L31.8474 32.8627L30.8443 32.2952L29.3597 31.4438C29.3597 31.4438 29.3597 31.4438 29.3196 31.4438L26.9925 30.106L25.508 29.2546L24.6253 28.7682L24.1839 28.5249L22.9401 27.7952L22.4988 27.5519L19.5698 25.8492L18.4464 25.2006L17.5637 24.6736L17.1223 24.4303L16.9618 24.3492L16.5205 24.106L15.4371 23.4979L14.9958 23.2546L14.1933 22.7682L13.752 22.5249L12.8693 21.9979L12.4279 21.7546L12.3477 21.7141L12.0267 21.5519L11.8261 21.4303L10.7829 20.8222L10.502 20.66H10.4619C10.4218 20.66 10.3817 20.6195 10.3817 20.579C10.3817 20.5384 10.3416 20.4979 10.3416 20.4573C10.3416 20.4168 10.3416 20.4168 10.3416 20.3763V20.3357C10.3416 20.3357 10.3415 20.2952 10.3817 20.2952L10.4218 20.2546H10.4619H10.502H10.5422H10.5823C10.6224 20.2546 10.6224 20.2546 10.6625 20.2952L10.9033 20.4168L10.9835 20.4573L11.7057 20.8627L12.1872 21.1465L12.3878 21.2682L12.8292 21.5114L13.7119 22.0384L14.1532 22.2817L14.9557 22.7682L15.5174 22.8898L16.6007 23.4979L17.0421 23.7411L17.2025 23.8222L17.6439 24.0654L18.5266 24.5925L19.65 25.2411L23.0203 27.1871L23.4617 27.4303L24.7055 28.16L25.1469 28.4033L26.0296 28.8898L27.5141 29.7411L29.6005 30.9573C29.6005 30.9573 29.6005 30.9573 29.6406 30.9573L31.1653 31.8492L32.1683 32.4573L35.4584 34.3627L40.3935 31.4844L40.8349 31.2411L41.1157 31.079L41.5571 30.8357L42.3997 30.3492L42.6805 30.1871L42.9614 30.0249L43.0817 29.9438L43.3626 29.7817L49.7421 26.0519L49.8224 26.0114L49.9427 25.9303L50.023 25.8898C50.0631 25.8898 50.1032 25.8492 50.1433 25.8492C50.1835 25.8492 50.1835 25.8492 50.2236 25.8492C50.2637 25.8492 50.2637 25.8492 50.3038 25.8898C50.344 25.8898 50.344 25.9303 50.3841 25.9709C50.3841 25.9709 50.3841 26.0114 50.4242 26.0114L50.4643 26.0925Z" fill="black"/>
<path d="M32.0479 32.9439C32.0078 32.9439 31.9677 32.9439 31.9276 32.9033L30.9245 32.2952C30.8041 32.2142 30.764 32.0925 30.8442 32.0114C30.9245 31.8898 31.0449 31.8493 31.1251 31.9304L32.1282 32.5385C32.2485 32.6196 32.2887 32.7412 32.2084 32.8223C32.1683 32.9033 32.1282 32.9439 32.0479 32.9439Z" fill="black"/>
<path d="M20.7735 40.4439C20.7334 40.525 20.6531 40.5655 20.5729 40.5655C20.5327 40.5655 20.4926 40.5655 20.4525 40.525L20.4124 40.4844H20.3722L17.684 38.9439L17.6038 38.9033L17.1624 38.6601L15.9587 37.9709L15.1563 37.5249C15.1563 37.5249 15.1563 37.5249 15.1162 37.5249L15.076 37.4844L14.8353 37.3628L13.3508 36.5114L12.9495 36.2682L12.4279 35.9439L11.9866 35.7006L11.8662 35.6195L11.4249 35.3763H11.3847L10.823 35.052L10.5823 34.9304C10.502 34.8898 10.4619 34.8087 10.4619 34.7277V20.3358V20.2952C10.4619 20.2547 10.4619 20.2547 10.502 20.2141C10.502 20.2141 10.502 20.1736 10.5422 20.1736L10.5823 20.1331H10.6224H10.6625H10.7027H10.7428C10.7829 20.1331 10.7829 20.1331 10.823 20.1736C10.8631 20.2141 10.9033 20.2952 10.9033 20.3358V34.4844L11.1841 34.6466L11.9465 35.0925H11.9866L12.5483 35.4168L12.5884 35.4574L12.7489 35.5385L12.9495 35.6601L13.0298 35.7006L13.3909 35.9033L13.8322 36.1466L14.2736 36.3898L14.3939 36.4304L15.076 36.8358C15.076 36.8358 15.076 36.8358 15.1162 36.8358L15.397 36.9979C15.397 36.9979 15.397 36.9979 15.4371 36.9979L15.718 37.1601L15.8785 37.2412L15.9186 37.2817L17.7643 38.3358L20.5327 39.9168L20.613 39.9574L20.6932 39.9979C20.8136 40.2006 20.8537 40.3222 20.7735 40.4439Z" fill="black"/>
<path d="M35.5788 34.8899C35.4584 34.8899 35.3782 34.8088 35.3782 34.7277C35.3782 34.6872 35.3782 34.6061 35.3782 34.5655C35.4183 34.4439 35.5387 34.4034 35.659 34.4439C35.7393 34.4845 35.7794 34.5655 35.7794 34.6466C35.7794 34.7682 35.6992 34.8899 35.5788 34.8899Z" fill="black"/>
<path d="M35.4986 49.1194C35.4584 49.1194 35.4183 49.1194 35.3782 49.0789L32.9708 47.7005C32.9708 47.7005 32.9708 47.7005 32.9307 47.7005L32.4091 47.4167C32.4091 47.4167 32.4091 47.4167 32.369 47.4167L30.8443 46.5249C30.8443 46.5249 30.8443 46.5249 30.8042 46.5249L19.6501 40.1195C19.5297 40.0789 19.4896 39.9167 19.5698 39.8357C19.6099 39.714 19.7704 39.6735 19.8507 39.7546L30.9647 46.16C30.9647 46.16 30.9647 46.16 31.0048 46.16L32.5295 47.0519C32.5295 47.0519 32.5295 47.0519 32.5696 47.0519L33.1313 47.3762H33.1714L35.5788 48.7546C35.6992 48.7951 35.7393 48.9573 35.6591 49.0384C35.6591 49.0789 35.5788 49.1194 35.4986 49.1194Z" fill="black"/>
<path d="M44.7267 29.4979C44.6465 29.4979 44.6063 29.4574 44.5662 29.4169C44.486 29.3358 44.5261 29.1736 44.6063 29.0925C44.6866 29.0115 44.8471 29.052 44.9273 29.1331C45.0076 29.2142 44.9674 29.3763 44.8872 29.4574C44.8471 29.4979 44.7668 29.4979 44.7267 29.4979Z" fill="black"/>
<path d="M50.2236 26.2952C50.1834 26.2952 50.1433 26.2952 50.1032 26.2546L49.9026 26.133C49.7822 26.0519 49.7822 25.9303 49.8223 25.8087C49.9026 25.6871 50.0229 25.6871 50.1433 25.7276L50.3439 25.8492C50.4643 25.8898 50.5044 26.0519 50.4242 26.133C50.3841 26.2546 50.3038 26.2952 50.2236 26.2952Z" fill="black"/>
<path d="M43.162 30.4304C43.1219 30.4304 43.0818 30.4304 43.0417 30.3898L18.4063 15.9979C18.326 15.9574 18.2859 15.8763 18.2859 15.7952C18.2859 15.7141 18.326 15.6331 18.3661 15.5925L25.4277 11.5385C25.508 11.4979 25.5882 11.4979 25.6685 11.5385C25.7889 11.579 25.829 11.7412 25.7889 11.8628C25.7487 11.9439 25.6685 11.9844 25.5882 11.9844L25.4277 12.0655L18.9279 15.7952L43.2423 30.0249C43.3626 30.106 43.4028 30.2277 43.3225 30.3087C43.2824 30.3898 43.2423 30.4304 43.162 30.4304Z" fill="black"/>
<path d="M50.1433 26.2142C50.1032 26.2142 50.0229 26.1737 49.9828 26.1331C49.9025 26.052 49.9025 25.8899 49.9828 25.8088L50.0229 25.7683C50.1433 25.6872 50.2636 25.7277 50.3439 25.8493C50.4241 25.971 50.384 26.0926 50.2637 26.1331C50.2235 26.2142 50.1834 26.2142 50.1433 26.2142Z" fill="black"/>
<path d="M35.4986 49.444C35.4584 49.444 35.4183 49.444 35.3782 49.4034C35.2979 49.3629 35.2578 49.2818 35.2578 49.2007V34.6872C35.2578 34.5656 35.3381 34.4845 35.4584 34.4845C35.5788 34.4845 35.659 34.5656 35.659 34.6872V48.8359L50.023 40.444V26.0926V26.0521C50.023 25.9305 50.1032 25.8088 50.2236 25.8088C50.344 25.8088 50.4242 25.8899 50.4242 26.0115L50.2236 26.0521H50.4242V40.5656C50.4242 40.6467 50.3841 40.7278 50.3039 40.7683L35.5788 49.4034C35.5788 49.444 35.5387 49.444 35.4986 49.444Z" fill="black"/>
<path d="M43.0818 30.3898C43.0818 30.4709 43.0417 30.5114 43.0417 30.552L43.0016 30.5925L42.0386 31.1601L41.5973 31.4033L41.3565 31.5655L40.9152 31.8087L35.7795 34.8087H35.7393C35.6992 34.8087 35.6992 34.8493 35.6591 34.8493C35.6591 34.8493 35.6591 34.8493 35.619 34.8493C35.5789 34.8493 35.5387 34.8493 35.5387 34.8087C35.4585 34.7682 35.4184 34.6871 35.4184 34.6466C35.4184 34.6466 35.4184 34.6466 35.4184 34.606V34.5655V34.5249C35.4184 34.5249 35.4184 34.5249 35.4184 34.4844L35.4585 34.4439C35.4585 34.4439 35.4986 34.4439 35.4986 34.4033H35.5387L40.4337 31.5655L40.8751 31.3222L41.1559 31.1601L41.5973 30.9168L42.4399 30.4303L33.9338 25.4439L32.8104 24.7952L31.9277 24.2682L31.4863 24.0249L30.4431 23.4168L30.0018 23.1736L28.3166 22.1601L27.8753 21.9168L25.9093 20.7412L24.4247 19.8898L23.542 19.3628L23.1007 19.1195L19.1686 16.8087L18.7273 16.5655L18.2859 16.3222L17.0421 17.052L16.6008 17.2952L15.5175 17.9033L15.0761 18.1466L14.2737 18.633L13.8323 18.8763L12.9496 19.4033L12.7089 19.5249L12.5083 19.6466H12.3076L12.107 19.7682L11.7058 20.0114L11.104 20.3357L10.9033 20.4574L10.783 20.5384C10.7429 20.579 10.6626 20.579 10.5824 20.5384H10.5422C10.5021 20.5384 10.462 20.4979 10.462 20.4574C10.462 20.4168 10.4219 20.3763 10.4219 20.3357C10.4219 20.2952 10.4219 20.2952 10.4219 20.2547V20.2141C10.4219 20.2141 10.4219 20.1736 10.462 20.1736L10.5021 20.133H10.5422L11.5854 19.5249L11.8663 19.3628L11.9867 19.2817L12.1873 19.1601L12.4681 18.9979L12.5885 18.9168L12.8694 18.7547L13.7521 18.2276L14.1934 17.9844L14.9959 17.4979L16.5205 16.606L16.9619 16.3628L18.1254 15.7141C18.1656 15.7141 18.1656 15.6736 18.2057 15.6736H18.2458C18.2859 15.6736 18.2859 15.6736 18.3261 15.7141L18.3662 15.7547L18.647 15.9168L19.0884 16.1601L23.4618 18.7141L23.9031 18.9574L24.7858 19.4844L26.2704 20.3357L27.795 21.2276L28.2364 21.4709L30.3629 22.7276L30.8043 22.9709L31.4061 23.3357L31.8474 23.579L32.7301 24.106L33.653 24.633L33.8536 24.7547L34.0141 24.8357L42.801 29.9844L42.9213 30.0655C43.0417 30.2276 43.0818 30.3087 43.0818 30.3898Z" fill="black"/>
</svg>
