<svg width="24" height="24" viewBox="0 0 24 24"  xmlns="http://www.w3.org/2000/svg">
<path d="M11.5 1.5C17.023 1.5 21.5 5.977 21.5 11.5C21.5 17.023 17.023 21.5 11.5 21.5C9.73279 21.5029 7.99667 21.0352 6.47001 20.145L1.50401 21.5L2.85601 16.532C1.96511 15.0049 1.49706 13.268 1.50001 11.5C1.50001 5.977 5.97701 1.5 11.5 1.5ZM8.09201 6.8L7.89201 6.808C7.76254 6.81589 7.63599 6.8499 7.52001 6.908C7.41153 6.96943 7.31251 7.04622 7.22601 7.136C7.10601 7.249 7.03801 7.347 6.96501 7.442C6.59514 7.9229 6.39599 8.51331 6.39901 9.12C6.40101 9.61 6.52901 10.087 6.72901 10.533C7.13801 11.435 7.81101 12.39 8.69901 13.275C8.91301 13.488 9.12301 13.702 9.34901 13.901C10.4524 14.8725 11.7673 15.573 13.189 15.947L13.757 16.034C13.942 16.044 14.127 16.03 14.313 16.021C14.6043 16.006 14.8886 15.9271 15.146 15.79C15.277 15.7225 15.4048 15.6491 15.529 15.57C15.529 15.57 15.572 15.542 15.654 15.48C15.789 15.38 15.872 15.309 15.984 15.192C16.067 15.106 16.139 15.005 16.194 14.89C16.272 14.727 16.35 14.416 16.382 14.157C16.406 13.959 16.399 13.851 16.396 13.784C16.392 13.677 16.303 13.566 16.206 13.519L15.624 13.258C15.624 13.258 14.754 12.879 14.222 12.637C14.1663 12.6127 14.1067 12.5988 14.046 12.596C13.9776 12.589 13.9085 12.5967 13.8433 12.6186C13.7781 12.6405 13.7183 12.6761 13.668 12.723C13.663 12.721 13.596 12.778 12.873 13.654C12.8315 13.7098 12.7744 13.7519 12.7088 13.7751C12.6433 13.7982 12.5723 13.8013 12.505 13.784C12.4399 13.7665 12.376 13.7445 12.314 13.718C12.19 13.666 12.147 13.646 12.062 13.61C11.4881 13.3595 10.9567 13.0211 10.487 12.607C10.361 12.497 10.244 12.377 10.124 12.261C9.7306 11.8842 9.38774 11.458 9.10401 10.993L9.04501 10.898C9.00264 10.8342 8.96837 10.7653 8.94301 10.693C8.90501 10.546 9.00401 10.428 9.00401 10.428C9.00401 10.428 9.24701 10.162 9.36001 10.018C9.47001 9.878 9.56301 9.742 9.62301 9.645C9.74101 9.455 9.77801 9.26 9.71601 9.109C9.43601 8.425 9.14601 7.744 8.84801 7.068C8.78901 6.934 8.61401 6.838 8.45501 6.819C8.40101 6.813 8.34701 6.807 8.29301 6.803C8.15872 6.79633 8.02415 6.79766 7.89001 6.807L8.09101 6.799L8.09201 6.8Z" />
</svg>
